<svg xmlns="http://www.w3.org/2000/svg" xmlns:xlink="http://www.w3.org/1999/xlink" width="141" zoomAndPan="magnify" viewBox="0 0 105.75 105.749996" height="141" preserveAspectRatio="xMidYMid meet" version="1.0"><defs><clipPath id="6078c7aa1a"><path d="M 0 0 L 105.5 0 L 105.5 105.5 L 0 105.5 Z M 0 0 " clip-rule="nonzero"/></clipPath><clipPath id="13aab6fb67"><path d="M 0 0 L 105.199219 0 L 105.199219 105.199219 L 0 105.199219 Z M 0 0 " clip-rule="nonzero"/></clipPath><clipPath id="9052991ad5"><path d="M 52.601562 0 C 23.550781 0 0 23.550781 0 52.601562 C 0 81.648438 23.550781 105.199219 52.601562 105.199219 C 81.648438 105.199219 105.199219 81.648438 105.199219 52.601562 C 105.199219 23.550781 81.648438 0 52.601562 0 Z M 52.601562 0 " clip-rule="nonzero"/></clipPath><clipPath id="1be7b0adc4"><path d="M 0 0 L 105.199219 0 L 105.199219 105.199219 L 0 105.199219 Z M 0 0 " clip-rule="nonzero"/></clipPath><clipPath id="ee1845fc16"><path d="M 52.601562 0 C 23.550781 0 0 23.550781 0 52.601562 C 0 81.648438 23.550781 105.199219 52.601562 105.199219 C 81.648438 105.199219 105.199219 81.648438 105.199219 52.601562 C 105.199219 23.550781 81.648438 0 52.601562 0 Z M 52.601562 0 " clip-rule="nonzero"/></clipPath><clipPath id="b305865c96"><rect x="0" width="106" y="0" height="106"/></clipPath><clipPath id="65ea2ed556"><path d="M 0 21.257812 L 103.664062 21.257812 L 103.664062 63.976562 L 0 63.976562 Z M 0 21.257812 " clip-rule="nonzero"/></clipPath><clipPath id="838bdeefd1"><path d="M 61.710938 27.914062 L 91.320312 27.914062 L 91.320312 57.523438 L 61.710938 57.523438 Z M 61.710938 27.914062 " clip-rule="nonzero"/></clipPath><clipPath id="c2b17a49fb"><path d="M 76.515625 27.914062 C 68.335938 27.914062 61.710938 34.542969 61.710938 42.71875 C 61.710938 50.894531 68.335938 57.523438 76.515625 57.523438 C 84.691406 57.523438 91.320312 50.894531 91.320312 42.71875 C 91.320312 34.542969 84.691406 27.914062 76.515625 27.914062 Z M 76.515625 27.914062 " clip-rule="nonzero"/></clipPath><clipPath id="2a5ea9fdec"><path d="M 0.710938 0.914062 L 30.320312 0.914062 L 30.320312 30.523438 L 0.710938 30.523438 Z M 0.710938 0.914062 " clip-rule="nonzero"/></clipPath><clipPath id="85d08772b2"><path d="M 15.515625 0.914062 C 7.335938 0.914062 0.710938 7.542969 0.710938 15.71875 C 0.710938 23.894531 7.335938 30.523438 15.515625 30.523438 C 23.691406 30.523438 30.320312 23.894531 30.320312 15.71875 C 30.320312 7.542969 23.691406 0.914062 15.515625 0.914062 Z M 15.515625 0.914062 " clip-rule="nonzero"/></clipPath><clipPath id="5b67c6fbda"><rect x="0" width="31" y="0" height="31"/></clipPath><clipPath id="a52c720686"><path d="M 12.609375 27.914062 L 42.222656 27.914062 L 42.222656 57.523438 L 12.609375 57.523438 Z M 12.609375 27.914062 " clip-rule="nonzero"/></clipPath><clipPath id="c5ba105009"><path d="M 27.414062 27.914062 C 19.238281 27.914062 12.609375 34.542969 12.609375 42.71875 C 12.609375 50.894531 19.238281 57.523438 27.414062 57.523438 C 35.59375 57.523438 42.222656 50.894531 42.222656 42.71875 C 42.222656 34.542969 35.59375 27.914062 27.414062 27.914062 Z M 27.414062 27.914062 " clip-rule="nonzero"/></clipPath><clipPath id="f1b33d12dd"><path d="M 0.609375 0.914062 L 30.222656 0.914062 L 30.222656 30.523438 L 0.609375 30.523438 Z M 0.609375 0.914062 " clip-rule="nonzero"/></clipPath><clipPath id="68ea83cb9b"><path d="M 15.414062 0.914062 C 7.238281 0.914062 0.609375 7.542969 0.609375 15.71875 C 0.609375 23.894531 7.238281 30.523438 15.414062 30.523438 C 23.59375 30.523438 30.222656 23.894531 30.222656 15.71875 C 30.222656 7.542969 23.59375 0.914062 15.414062 0.914062 Z M 15.414062 0.914062 " clip-rule="nonzero"/></clipPath><clipPath id="337e6c38de"><rect x="0" width="31" y="0" height="31"/></clipPath><clipPath id="ef918ee5af"><path d="M 14.953125 29.625 L 40 29.625 L 40 35 L 14.953125 35 Z M 14.953125 29.625 " clip-rule="nonzero"/></clipPath><clipPath id="e67c16f3bc"><path d="M 14.953125 37 L 40.011719 37 L 40.011719 43 L 14.953125 43 Z M 14.953125 37 " clip-rule="nonzero"/></clipPath><clipPath id="59c1077720"><path d="M 14.953125 45 L 40 45 L 40 50.132812 L 14.953125 50.132812 Z M 14.953125 45 " clip-rule="nonzero"/></clipPath><clipPath id="cae2f067c0"><path d="M 64.230469 29.625 L 89.292969 29.625 L 89.292969 35 L 64.230469 35 Z M 64.230469 29.625 " clip-rule="nonzero"/></clipPath><clipPath id="e03c2aa4d8"><path d="M 64.230469 37 L 89.292969 37 L 89.292969 43 L 64.230469 43 Z M 64.230469 37 " clip-rule="nonzero"/></clipPath><clipPath id="6e00ce84c1"><path d="M 64.230469 45 L 89.292969 45 L 89.292969 50.132812 L 64.230469 50.132812 Z M 64.230469 45 " clip-rule="nonzero"/></clipPath><clipPath id="11fad4d71f"><path d="M 18 65 L 87 65 L 87 88.644531 L 18 88.644531 Z M 18 65 " clip-rule="nonzero"/></clipPath><clipPath id="984d87a990"><path d="M 79 63.582031 L 89.804688 63.582031 L 89.804688 74 L 79 74 Z M 79 63.582031 " clip-rule="nonzero"/></clipPath><clipPath id="30f88f036a"><path d="M 15.1875 63.582031 L 26 63.582031 L 26 74 L 15.1875 74 Z M 15.1875 63.582031 " clip-rule="nonzero"/></clipPath><clipPath id="cf1d1c2453"><rect x="0" width="106" y="0" height="106"/></clipPath></defs><g clip-path="url(#6078c7aa1a)"><g transform="matrix(1, 0, 0, 1, 0, 0.00000000000001315)"><g clip-path="url(#cf1d1c2453)"><g clip-path="url(#13aab6fb67)"><g clip-path="url(#9052991ad5)"><g transform="matrix(1, 0, 0, 1, 0, 0.00000000000001315)"><g clip-path="url(#b305865c96)"><g clip-path="url(#1be7b0adc4)"><g clip-path="url(#ee1845fc16)"><path fill="#000000" d="M 0 0 L 105.199219 0 L 105.199219 105.199219 L 0 105.199219 Z M 0 0 " fill-opacity="1" fill-rule="nonzero"/></g></g></g></g></g></g><g clip-path="url(#65ea2ed556)"><path fill="#ecd11e" d="M 79.972656 26.929688 C 72.589844 25.179688 64.96875 29.203125 61.753906 35.933594 C 58.578125 42.585938 60.652344 51.011719 66.488281 55.480469 C 67.21875 56.035156 67.992188 56.527344 68.804688 56.957031 C 69.617188 57.386719 70.460938 57.742188 71.332031 58.027344 C 72.203125 58.316406 73.09375 58.527344 74.003906 58.664062 C 74.910156 58.800781 75.824219 58.859375 76.742188 58.84375 C 77.660156 58.824219 78.570312 58.730469 79.472656 58.5625 C 80.378906 58.394531 81.257812 58.148438 82.121094 57.832031 C 82.980469 57.511719 83.8125 57.125 84.609375 56.667969 C 85.40625 56.210938 86.15625 55.6875 86.867188 55.105469 C 90.558594 52.105469 92.550781 47.441406 92.628906 42.742188 L 92.628906 42.710938 C 92.617188 41.800781 92.53125 40.898438 92.371094 40 C 92.207031 39.105469 91.972656 38.230469 91.667969 37.371094 C 91.359375 36.515625 90.984375 35.691406 90.539062 34.894531 C 90.097656 34.101562 89.589844 33.347656 89.019531 32.640625 C 88.449219 31.929688 87.828125 31.269531 87.148438 30.664062 C 86.46875 30.058594 85.746094 29.511719 84.976562 29.027344 C 84.203125 28.542969 83.402344 28.121094 82.5625 27.769531 C 81.722656 27.417969 80.859375 27.136719 79.972656 26.929688 Z M 66.980469 53.761719 C 67.125 53.597656 66.695312 53.316406 66.5625 53.195312 C 66.066406 52.726562 65.605469 52.222656 65.179688 51.691406 C 64.761719 51.167969 64.378906 50.613281 64.039062 50.039062 C 63.960938 49.90625 63.265625 48.609375 63.207031 48.679688 C 63.269531 48.601562 63.335938 48.527344 63.402344 48.449219 L 72.109375 38.3125 C 74.824219 35.15625 77.539062 31.996094 80.253906 28.835938 C 81.4375 29.171875 82.566406 29.644531 83.636719 30.25 C 84 30.453125 85.703125 31.757812 85.921875 31.707031 C 85.921875 31.707031 85.921875 31.710938 85.925781 31.714844 C 85.679688 32.003906 85.429688 32.289062 85.179688 32.578125 C 83.867188 34.105469 82.554688 35.636719 81.238281 37.164062 C 77.605469 41.398438 73.96875 45.628906 70.335938 49.859375 C 69.289062 51.074219 68.242188 52.292969 67.199219 53.507812 C 67.125 53.59375 67.050781 53.675781 66.980469 53.761719 Z M 77.375 28.359375 C 72.375 34.175781 67.378906 39.992188 62.378906 45.8125 C 62.257812 45.269531 62.171875 44.722656 62.117188 44.167969 C 62.058594 43.613281 62.035156 43.058594 62.042969 42.503906 C 62.054688 41.949219 62.09375 41.394531 62.167969 40.84375 C 62.238281 40.292969 62.34375 39.746094 62.480469 39.207031 C 62.613281 38.667969 62.78125 38.136719 62.980469 37.617188 C 63.175781 37.097656 63.402344 36.59375 63.660156 36.097656 C 63.914062 35.605469 64.199219 35.128906 64.507812 34.667969 C 64.820312 34.207031 65.15625 33.765625 65.519531 33.34375 C 65.882812 32.921875 66.265625 32.523438 66.675781 32.144531 C 67.085938 31.769531 67.515625 31.414062 67.964844 31.089844 C 68.414062 30.761719 68.878906 30.460938 69.363281 30.1875 C 69.847656 29.914062 70.347656 29.667969 70.859375 29.453125 C 71.371094 29.238281 71.894531 29.054688 72.429688 28.898438 C 72.964844 28.742188 73.503906 28.621094 74.050781 28.527344 C 74.601562 28.4375 75.152344 28.375 75.707031 28.347656 C 76.261719 28.320312 76.820312 28.324219 77.375 28.359375 Z M 37.433594 29.96875 C 36.703125 29.414062 35.933594 28.921875 35.121094 28.492188 C 34.308594 28.066406 33.464844 27.707031 32.59375 27.421875 C 31.71875 27.136719 30.832031 26.925781 29.921875 26.789062 C 29.015625 26.652344 28.101562 26.589844 27.183594 26.609375 C 26.265625 26.625 25.355469 26.71875 24.453125 26.886719 C 23.550781 27.058594 22.667969 27.300781 21.804688 27.621094 C 20.945312 27.9375 20.117188 28.328125 19.320312 28.785156 C 18.523438 29.242188 17.769531 29.761719 17.0625 30.347656 C 13.367188 33.347656 11.375 38.007812 11.300781 42.710938 L 11.300781 42.738281 C 11.308594 43.648438 11.394531 44.550781 11.558594 45.449219 C 11.71875 46.34375 11.953125 47.21875 12.257812 48.078125 C 12.566406 48.933594 12.941406 49.757812 13.386719 50.554688 C 13.828125 51.347656 14.335938 52.101562 14.90625 52.808594 C 15.476562 53.519531 16.097656 54.179688 16.777344 54.785156 C 17.457031 55.390625 18.179688 55.9375 18.949219 56.421875 C 19.71875 56.910156 20.523438 57.328125 21.363281 57.679688 C 22.203125 58.03125 23.066406 58.3125 23.953125 58.519531 C 31.335938 60.269531 38.960938 56.25 42.171875 49.515625 C 45.347656 42.863281 43.277344 34.4375 37.433594 29.96875 Z M 17.972656 53.597656 C 17.957031 53.617188 17.933594 53.644531 17.914062 53.664062 C 17.914062 53.664062 17.914062 53.664062 17.914062 53.660156 C 18.035156 53.453125 17.242188 52.839844 17.082031 52.679688 C 16.210938 51.769531 15.46875 50.757812 14.855469 49.652344 C 14.792969 49.542969 14.257812 48.449219 14.183594 48.53125 C 14.210938 48.5 14.238281 48.472656 14.261719 48.441406 C 14.597656 48.050781 14.929688 47.664062 15.265625 47.273438 C 18.632812 43.355469 22 39.433594 25.367188 35.515625 C 26.953125 33.667969 28.539062 31.824219 30.121094 29.980469 C 30.464844 29.578125 30.8125 29.179688 31.15625 28.777344 C 31.269531 28.648438 32.992188 29.414062 33.234375 29.523438 C 34.519531 30.082031 35.699219 30.820312 36.765625 31.726562 C 31.058594 38.367188 25.347656 45.011719 19.640625 51.65625 C 19.1875 52.179688 18.742188 52.703125 18.289062 53.226562 C 18.183594 53.351562 18.078125 53.476562 17.972656 53.597656 Z M 16.816406 33.050781 C 17.535156 32.261719 18.332031 31.5625 19.207031 30.949219 C 20.082031 30.335938 21.011719 29.828125 22 29.421875 C 22.984375 29.015625 24.003906 28.722656 25.058594 28.539062 C 26.109375 28.359375 27.167969 28.296875 28.234375 28.347656 C 23.28125 34.113281 18.332031 39.878906 13.382812 45.636719 C 13.160156 44.527344 13.066406 43.40625 13.105469 42.273438 C 13.144531 41.140625 13.3125 40.03125 13.613281 38.9375 C 13.910156 37.84375 14.328125 36.800781 14.871094 35.808594 C 15.414062 34.8125 16.0625 33.894531 16.816406 33.050781 Z M 100.941406 34.425781 C 99.972656 34.117188 98.984375 33.96875 97.96875 33.984375 C 97.328125 33.980469 96.695312 34.035156 96.0625 34.148438 C 95.292969 32.417969 94.3125 30.8125 93.121094 29.335938 C 91.929688 27.859375 90.570312 26.5625 89.039062 25.441406 C 87.503906 24.324219 85.855469 23.421875 84.085938 22.738281 C 82.316406 22.050781 80.492188 21.605469 78.605469 21.398438 C 77.847656 21.3125 77.089844 21.269531 76.328125 21.269531 C 69.054688 21.269531 62.125 25.214844 58.144531 31.601562 C 56.222656 31.332031 54.296875 31.160156 52.355469 31.097656 C 52.328125 31.097656 52.296875 31.097656 52.265625 31.101562 C 52.222656 31.09375 52.179688 31.089844 52.136719 31.085938 C 52.132812 31.085938 51.808594 31.09375 51.808594 31.09375 C 51.765625 31.09375 51.71875 31.097656 51.675781 31.105469 C 51.632812 31.101562 51.585938 31.097656 51.539062 31.097656 L 51.53125 31.097656 C 49.605469 31.164062 47.6875 31.332031 45.78125 31.601562 C 44.8125 30.023438 43.660156 28.59375 42.320312 27.3125 C 40.984375 26.03125 39.507812 24.941406 37.890625 24.039062 C 36.273438 23.140625 34.566406 22.457031 32.773438 21.992188 C 30.980469 21.53125 29.160156 21.300781 27.308594 21.308594 C 26.652344 21.308594 25.988281 21.339844 25.335938 21.398438 C 17.882812 22.070312 11.078125 27.050781 7.859375 34.148438 C 7.257812 34.046875 6.648438 33.996094 6.039062 34 C 5.1875 34 4.339844 34.082031 3.503906 34.25 C 0.921875 34.78125 0 37.34375 0 39.5625 L 0 39.792969 C -0.00390625 41.574219 -0.0078125 43.792969 1.925781 45.101562 C 3.195312 45.960938 4.65625 46.070312 5.78125 46.070312 C 5.960938 46.070312 6.140625 46.066406 6.324219 46.0625 C 8.089844 56.414062 17.179688 64.152344 27.691406 64.152344 C 27.960938 64.152344 28.226562 64.144531 28.496094 64.136719 C 39.089844 63.75 47.941406 55.058594 48.84375 44.261719 C 49.84375 44.046875 50.851562 43.90625 51.871094 43.835938 L 51.960938 43.828125 C 51.964844 43.828125 52.0625 43.835938 52.0625 43.835938 C 53.078125 43.90625 54.082031 44.046875 55.078125 44.261719 C 55.1875 45.550781 55.410156 46.820312 55.746094 48.070312 C 56.082031 49.320312 56.527344 50.53125 57.078125 51.703125 C 57.628906 52.875 58.28125 53.988281 59.03125 55.042969 C 59.785156 56.097656 60.621094 57.078125 61.546875 57.980469 C 62.476562 58.886719 63.472656 59.703125 64.546875 60.429688 C 65.617188 61.15625 66.746094 61.78125 67.929688 62.304688 C 69.109375 62.832031 70.332031 63.246094 71.589844 63.554688 C 72.847656 63.863281 74.121094 64.054688 75.414062 64.136719 C 75.828125 64.160156 76.238281 64.171875 76.648438 64.171875 C 86.921875 64.171875 95.832031 56.425781 97.601562 46.058594 C 97.773438 46.066406 97.945312 46.066406 98.113281 46.066406 C 99.089844 46.066406 100.363281 45.992188 101.554688 45.398438 C 103.929688 44.207031 103.929688 41.664062 103.929688 39.5625 C 103.929688 36.917969 102.867188 35.097656 100.941406 34.425781 Z M 96.070312 44.855469 C 94.859375 55.207031 85.828125 62.816406 75.453125 62.441406 C 65.253906 62.070312 57.152344 53.375 56.71875 43.363281 C 56.714844 43.097656 56.585938 42.925781 56.328125 42.847656 C 54.9375 42.382812 53.476562 42.269531 52.023438 42.132812 C 52.003906 42.132812 51.988281 42.128906 51.96875 42.132812 L 51.960938 42.132812 C 51.941406 42.128906 51.921875 42.132812 51.902344 42.132812 C 50.449219 42.269531 48.988281 42.382812 47.597656 42.847656 C 47.339844 42.925781 47.210938 43.097656 47.207031 43.363281 C 47.152344 44.585938 46.988281 45.792969 46.710938 46.988281 C 46.4375 48.179688 46.054688 49.335938 45.566406 50.457031 C 45.078125 51.582031 44.492188 52.648438 43.808594 53.664062 C 43.125 54.679688 42.355469 55.621094 41.496094 56.496094 C 40.640625 57.367188 39.710938 58.15625 38.707031 58.859375 C 37.707031 59.558594 36.648438 60.164062 35.535156 60.671875 C 34.421875 61.183594 33.273438 61.585938 32.085938 61.882812 C 30.898438 62.175781 29.691406 62.363281 28.472656 62.441406 C 18.117188 63.070312 9.046875 55.019531 7.855469 44.855469 C 7.851562 44.707031 7.800781 44.582031 7.695312 44.480469 C 7.59375 44.375 7.46875 44.324219 7.320312 44.320312 C 6.457031 44.363281 5.585938 44.324219 4.71875 44.324219 C 2.078125 44.324219 1.695312 41.917969 1.695312 39.890625 C 1.695312 37.890625 2.324219 35.789062 4.777344 35.789062 C 5.96875 35.789062 7.25 35.648438 8.398438 36.03125 C 8.539062 36.066406 8.675781 36.050781 8.800781 35.976562 C 8.929688 35.902344 9.011719 35.796875 9.050781 35.65625 C 9.390625 34.796875 9.789062 33.964844 10.242188 33.160156 C 10.699219 32.351562 11.207031 31.582031 11.769531 30.847656 C 12.328125 30.113281 12.9375 29.417969 13.597656 28.769531 C 14.253906 28.117188 14.953125 27.515625 15.691406 26.960938 C 16.433594 26.40625 17.210938 25.90625 18.019531 25.460938 C 18.828125 25.011719 19.664062 24.625 20.53125 24.292969 C 21.394531 23.960938 22.277344 23.691406 23.175781 23.484375 C 24.078125 23.273438 24.988281 23.128906 25.910156 23.046875 C 33.59375 22.355469 40.917969 26.527344 44.71875 33.125 C 44.859375 33.351562 45.0625 33.433594 45.324219 33.371094 C 47.386719 33.0625 49.460938 32.871094 51.546875 32.792969 C 51.59375 32.792969 51.636719 32.785156 51.675781 32.777344 C 51.839844 32.785156 52 32.773438 52.160156 32.742188 C 52.230469 32.773438 52.300781 32.792969 52.375 32.792969 C 54.464844 32.871094 56.539062 33.0625 58.605469 33.371094 C 58.863281 33.433594 59.0625 33.351562 59.207031 33.125 C 59.671875 32.308594 60.191406 31.53125 60.765625 30.785156 C 61.339844 30.042969 61.964844 29.34375 62.636719 28.6875 C 63.308594 28.035156 64.023438 27.429688 64.78125 26.875 C 65.539062 26.320312 66.332031 25.820312 67.160156 25.375 C 67.988281 24.933594 68.84375 24.550781 69.722656 24.226562 C 70.605469 23.902344 71.507812 23.640625 72.425781 23.445312 C 73.34375 23.246094 74.269531 23.117188 75.207031 23.046875 C 76.144531 22.980469 77.082031 22.980469 78.015625 23.046875 C 85.546875 23.527344 92.128906 28.734375 94.871094 35.65625 C 94.914062 35.796875 95 35.90625 95.125 35.976562 C 95.253906 36.050781 95.386719 36.066406 95.53125 36.03125 C 96.675781 35.648438 97.957031 35.789062 99.148438 35.789062 C 101.605469 35.789062 102.230469 37.890625 102.230469 39.890625 C 102.230469 42.011719 101.839844 44.148438 99.207031 44.324219 C 98.339844 44.375 97.472656 44.371094 96.605469 44.320312 C 96.457031 44.324219 96.332031 44.375 96.230469 44.480469 C 96.125 44.582031 96.074219 44.707031 96.070312 44.855469 Z M 96.070312 44.855469 " fill-opacity="1" fill-rule="nonzero"/></g><g clip-path="url(#838bdeefd1)"><g clip-path="url(#c2b17a49fb)"><g transform="matrix(1, 0, 0, 1, 61, 27)"><g clip-path="url(#5b67c6fbda)"><g clip-path="url(#2a5ea9fdec)"><g clip-path="url(#85d08772b2)"><path fill="#ecd11e" d="M 0.710938 0.914062 L 30.320312 0.914062 L 30.320312 30.523438 L 0.710938 30.523438 Z M 0.710938 0.914062 " fill-opacity="1" fill-rule="nonzero"/></g></g></g></g></g></g><g clip-path="url(#a52c720686)"><g clip-path="url(#c5ba105009)"><g transform="matrix(1, 0, 0, 1, 12, 27)"><g clip-path="url(#337e6c38de)"><g clip-path="url(#f1b33d12dd)"><g clip-path="url(#68ea83cb9b)"><path fill="#ecd11e" d="M 0.609375 0.914062 L 30.222656 0.914062 L 30.222656 30.523438 L 0.609375 30.523438 Z M 0.609375 0.914062 " fill-opacity="1" fill-rule="nonzero"/></g></g></g></g></g></g><g clip-path="url(#ef918ee5af)"><path fill="#000000" d="M 14.980469 34.507812 C 15.316406 34.191406 15.65625 33.875 15.988281 33.550781 C 17.246094 32.324219 18.496094 31.089844 19.757812 29.867188 C 19.882812 29.746094 20.085938 29.644531 20.253906 29.644531 C 26.742188 29.632812 33.226562 29.628906 39.714844 29.632812 C 39.789062 29.632812 39.863281 29.644531 39.996094 29.652344 C 39.914062 29.75 39.867188 29.816406 39.808594 29.875 C 38.269531 31.386719 36.730469 32.894531 35.1875 34.402344 C 35.0625 34.519531 34.851562 34.609375 34.679688 34.609375 C 28.21875 34.617188 21.757812 34.621094 15.300781 34.617188 C 15.210938 34.617188 15.125 34.605469 15.035156 34.601562 Z M 14.980469 34.507812 " fill-opacity="1" fill-rule="nonzero"/></g><g clip-path="url(#e67c16f3bc)"><path fill="#000000" d="M 40.011719 42.371094 L 39.523438 42.371094 C 33.152344 42.371094 26.78125 42.371094 20.414062 42.375 C 20.097656 42.375 19.882812 42.28125 19.664062 42.0625 C 18.21875 40.625 16.753906 39.199219 15.296875 37.769531 C 15.199219 37.671875 15.105469 37.570312 14.953125 37.414062 C 15.15625 37.402344 15.289062 37.390625 15.425781 37.390625 C 21.808594 37.386719 28.195312 37.386719 34.578125 37.382812 C 34.878906 37.382812 35.082031 37.476562 35.289062 37.683594 C 36.832031 39.226562 38.386719 40.757812 40.011719 42.371094 Z M 40.011719 42.371094 " fill-opacity="1" fill-rule="nonzero"/></g><g clip-path="url(#59c1077720)"><path fill="#000000" d="M 39.996094 45.179688 C 39.878906 45.308594 39.808594 45.394531 39.730469 45.472656 C 38.226562 46.949219 36.726562 48.425781 35.210938 49.890625 C 35.082031 50.015625 34.859375 50.113281 34.675781 50.113281 C 28.214844 50.125 21.753906 50.128906 15.292969 50.125 C 15.207031 50.125 15.117188 50.113281 14.972656 50.105469 C 15.074219 49.988281 15.140625 49.90625 15.214844 49.828125 C 16.726562 48.34375 18.234375 46.859375 19.757812 45.386719 C 19.890625 45.257812 20.113281 45.160156 20.296875 45.160156 C 26.730469 45.148438 33.164062 45.144531 39.601562 45.152344 C 39.710938 45.152344 39.824219 45.167969 39.996094 45.179688 Z M 39.996094 45.179688 " fill-opacity="1" fill-rule="nonzero"/></g><g clip-path="url(#cae2f067c0)"><path fill="#000000" d="M 64.257812 34.507812 C 64.59375 34.191406 64.9375 33.875 65.265625 33.550781 C 66.523438 32.324219 67.773438 31.089844 69.035156 29.867188 C 69.160156 29.746094 69.363281 29.644531 69.53125 29.644531 C 76.019531 29.632812 82.503906 29.628906 88.992188 29.632812 C 89.066406 29.632812 89.140625 29.644531 89.273438 29.652344 C 89.191406 29.75 89.144531 29.816406 89.085938 29.875 C 87.546875 31.386719 86.007812 32.894531 84.464844 34.402344 C 84.339844 34.519531 84.128906 34.609375 83.957031 34.609375 C 77.496094 34.617188 71.039062 34.621094 64.578125 34.617188 C 64.488281 34.617188 64.402344 34.605469 64.3125 34.601562 Z M 64.257812 34.507812 " fill-opacity="1" fill-rule="nonzero"/></g><g clip-path="url(#e03c2aa4d8)"><path fill="#000000" d="M 89.289062 42.371094 L 88.800781 42.371094 C 82.433594 42.371094 76.0625 42.371094 69.691406 42.375 C 69.375 42.375 69.160156 42.28125 68.941406 42.0625 C 67.496094 40.625 66.035156 39.199219 64.578125 37.769531 C 64.476562 37.671875 64.382812 37.570312 64.230469 37.414062 C 64.433594 37.402344 64.570312 37.390625 64.703125 37.390625 C 71.085938 37.386719 77.472656 37.386719 83.855469 37.382812 C 84.15625 37.382812 84.359375 37.476562 84.566406 37.683594 C 86.109375 39.226562 87.664062 40.757812 89.289062 42.371094 Z M 89.289062 42.371094 " fill-opacity="1" fill-rule="nonzero"/></g><g clip-path="url(#6e00ce84c1)"><path fill="#000000" d="M 89.273438 45.179688 C 89.15625 45.308594 89.085938 45.394531 89.007812 45.472656 C 87.503906 46.949219 86.003906 48.425781 84.488281 49.890625 C 84.359375 50.015625 84.136719 50.113281 83.957031 50.113281 C 77.496094 50.125 71.035156 50.128906 64.574219 50.125 C 64.484375 50.125 64.394531 50.113281 64.25 50.105469 C 64.351562 49.988281 64.417969 49.90625 64.496094 49.828125 C 66.003906 48.34375 67.515625 46.859375 69.035156 45.386719 C 69.167969 45.257812 69.390625 45.160156 69.574219 45.160156 C 76.007812 45.148438 82.445312 45.144531 88.878906 45.152344 C 88.988281 45.152344 89.101562 45.167969 89.273438 45.179688 Z M 89.273438 45.179688 " fill-opacity="1" fill-rule="nonzero"/></g><g clip-path="url(#11fad4d71f)"><path fill="#000000" d="M 52.5 72.65625 C 38.65625 72.65625 26.355469 70.035156 18.566406 65.972656 C 18.542969 66.222656 18.53125 66.472656 18.53125 66.726562 C 18.53125 76.085938 33.738281 88.640625 52.5 88.640625 C 71.261719 88.640625 86.46875 76.085938 86.46875 66.726562 C 86.46875 66.472656 86.457031 66.222656 86.433594 65.972656 C 78.644531 70.035156 66.34375 72.65625 52.5 72.65625 Z M 52.5 72.65625 " fill-opacity="1" fill-rule="nonzero"/></g><path fill="#ffffff" d="M 52.5 82.558594 C 48.320312 82.558594 44.167969 81.898438 40.160156 80.59375 C 36.5625 79.421875 33.121094 77.722656 30.203125 75.679688 C 28.816406 74.703125 27.632812 73.722656 26.640625 72.765625 C 34.105469 74.925781 43.070312 76.109375 52.5 76.109375 C 61.929688 76.109375 70.894531 74.925781 78.359375 72.765625 C 77.367188 73.722656 76.183594 74.703125 74.796875 75.679688 C 71.878906 77.722656 68.4375 79.421875 64.839844 80.59375 C 60.832031 81.898438 56.679688 82.558594 52.5 82.558594 Z M 52.5 82.558594 " fill-opacity="1" fill-rule="nonzero"/><g clip-path="url(#984d87a990)"><path fill="#000000" d="M 87.269531 66.085938 C 88.089844 66.902344 88.726562 67.890625 89.164062 69.019531 C 89.554688 70.035156 89.769531 71.164062 89.789062 72.28125 C 89.800781 72.8125 89.765625 73.308594 89.703125 73.757812 C 88.820312 71.722656 87.378906 69.65625 85.523438 67.820312 C 83.671875 65.980469 81.585938 64.550781 79.535156 63.675781 C 79.988281 63.613281 80.488281 63.578125 81.023438 63.585938 C 82.152344 63.609375 83.289062 63.824219 84.3125 64.210938 C 85.453125 64.640625 86.449219 65.273438 87.269531 66.085938 Z M 87.269531 66.085938 " fill-opacity="1" fill-rule="nonzero"/></g><g clip-path="url(#30f88f036a)"><path fill="#000000" d="M 17.730469 66.085938 C 16.910156 66.902344 16.273438 67.890625 15.835938 69.019531 C 15.445312 70.035156 15.230469 71.164062 15.210938 72.28125 C 15.199219 72.8125 15.234375 73.308594 15.296875 73.757812 C 16.179688 71.722656 17.621094 69.65625 19.476562 67.820312 C 21.328125 65.980469 23.414062 64.550781 25.464844 63.675781 C 25.011719 63.613281 24.511719 63.578125 23.976562 63.585938 C 22.847656 63.609375 21.710938 63.824219 20.6875 64.210938 C 19.546875 64.640625 18.550781 65.273438 17.730469 66.085938 Z M 17.730469 66.085938 " fill-opacity="1" fill-rule="nonzero"/></g></g></g></g></svg>