<svg xmlns="http://www.w3.org/2000/svg" xmlns:xlink="http://www.w3.org/1999/xlink" width="528" zoomAndPan="magnify" viewBox="0 0 396 141.750002" height="189" preserveAspectRatio="xMidYMid meet" version="1.0"><defs><g/><clipPath id="ee292eb291"><path d="M 0.347656 0 L 359 0 L 359 138 L 0.347656 138 Z M 0.347656 0 " clip-rule="nonzero"/></clipPath><clipPath id="e8d8537afc"><path d="M 0.347656 0 L 141.511719 0 L 141.511719 98.132812 L 0.347656 98.132812 Z M 0.347656 0 " clip-rule="nonzero"/></clipPath><clipPath id="6ab4d52c2d"><path d="M 112 34 L 358.996094 34 L 358.996094 110 L 112 110 Z M 112 34 " clip-rule="nonzero"/></clipPath><clipPath id="b3b84d8256"><rect x="0" width="247" y="0" height="76"/></clipPath><clipPath id="838bf92aa1"><path d="M 214 92 L 355 92 L 355 137.996094 L 214 137.996094 Z M 214 92 " clip-rule="nonzero"/></clipPath><clipPath id="f1beda7a61"><path d="M 43 24 L 61 24 L 61 45.996094 L 43 45.996094 Z M 43 24 " clip-rule="nonzero"/></clipPath><clipPath id="214a0e7cd9"><rect x="0" width="141" y="0" height="46"/></clipPath><clipPath id="c2d3a8d2b9"><path d="M 36.269531 37.511719 L 105.980469 37.511719 L 105.980469 107.222656 L 36.269531 107.222656 Z M 36.269531 37.511719 " clip-rule="nonzero"/></clipPath><clipPath id="684a407f66"><path d="M 71.125 37.511719 C 51.871094 37.511719 36.269531 53.117188 36.269531 72.367188 C 36.269531 91.617188 51.871094 107.222656 71.125 107.222656 C 90.375 107.222656 105.980469 91.617188 105.980469 72.367188 C 105.980469 53.117188 90.375 37.511719 71.125 37.511719 Z M 71.125 37.511719 " clip-rule="nonzero"/></clipPath><clipPath id="1c1f88a42a"><path d="M 0.269531 0.511719 L 69.980469 0.511719 L 69.980469 70.222656 L 0.269531 70.222656 Z M 0.269531 0.511719 " clip-rule="nonzero"/></clipPath><clipPath id="0534ad9404"><path d="M 35.125 0.511719 C 15.871094 0.511719 0.269531 16.117188 0.269531 35.367188 C 0.269531 54.617188 15.871094 70.222656 35.125 70.222656 C 54.375 70.222656 69.980469 54.617188 69.980469 35.367188 C 69.980469 16.117188 54.375 0.511719 35.125 0.511719 Z M 35.125 0.511719 " clip-rule="nonzero"/></clipPath><clipPath id="c6d69ab49e"><rect x="0" width="70" y="0" height="71"/></clipPath><clipPath id="42bfd9a699"><path d="M 36.269531 51.597656 L 104.960938 51.597656 L 104.960938 79.90625 L 36.269531 79.90625 Z M 36.269531 51.597656 " clip-rule="nonzero"/></clipPath><clipPath id="d230e817b1"><path d="M 77.160156 56.007812 L 96.78125 56.007812 L 96.78125 75.628906 L 77.160156 75.628906 Z M 77.160156 56.007812 " clip-rule="nonzero"/></clipPath><clipPath id="e6b69295c2"><path d="M 86.96875 56.007812 C 81.550781 56.007812 77.160156 60.398438 77.160156 65.816406 C 77.160156 71.234375 81.550781 75.628906 86.96875 75.628906 C 92.390625 75.628906 96.78125 71.234375 96.78125 65.816406 C 96.78125 60.398438 92.390625 56.007812 86.96875 56.007812 Z M 86.96875 56.007812 " clip-rule="nonzero"/></clipPath><clipPath id="d04f5890e8"><path d="M 0.160156 0.0078125 L 19.78125 0.0078125 L 19.78125 19.628906 L 0.160156 19.628906 Z M 0.160156 0.0078125 " clip-rule="nonzero"/></clipPath><clipPath id="a56ea06271"><path d="M 9.96875 0.0078125 C 4.550781 0.0078125 0.160156 4.398438 0.160156 9.816406 C 0.160156 15.234375 4.550781 19.628906 9.96875 19.628906 C 15.390625 19.628906 19.78125 15.234375 19.78125 9.816406 C 19.78125 4.398438 15.390625 0.0078125 9.96875 0.0078125 Z M 9.96875 0.0078125 " clip-rule="nonzero"/></clipPath><clipPath id="502b6e126e"><rect x="0" width="20" y="0" height="20"/></clipPath><clipPath id="32e111c1a4"><path d="M 44.625 56.007812 L 64.246094 56.007812 L 64.246094 75.628906 L 44.625 75.628906 Z M 44.625 56.007812 " clip-rule="nonzero"/></clipPath><clipPath id="97964109fe"><path d="M 54.433594 56.007812 C 49.015625 56.007812 44.625 60.398438 44.625 65.816406 C 44.625 71.234375 49.015625 75.628906 54.433594 75.628906 C 59.851562 75.628906 64.246094 71.234375 64.246094 65.816406 C 64.246094 60.398438 59.851562 56.007812 54.433594 56.007812 Z M 54.433594 56.007812 " clip-rule="nonzero"/></clipPath><clipPath id="8b2d9517fa"><path d="M 0.625 0.0078125 L 20.246094 0.0078125 L 20.246094 19.628906 L 0.625 19.628906 Z M 0.625 0.0078125 " clip-rule="nonzero"/></clipPath><clipPath id="0634e4db96"><path d="M 10.433594 0.0078125 C 5.015625 0.0078125 0.625 4.398438 0.625 9.816406 C 0.625 15.234375 5.015625 19.628906 10.433594 19.628906 C 15.851562 19.628906 20.246094 15.234375 20.246094 9.816406 C 20.246094 4.398438 15.851562 0.0078125 10.433594 0.0078125 Z M 10.433594 0.0078125 " clip-rule="nonzero"/></clipPath><clipPath id="783359ea54"><rect x="0" width="21" y="0" height="20"/></clipPath><clipPath id="cb892df2c9"><path d="M 46.175781 57.140625 L 62.78125 57.140625 L 62.78125 61 L 46.175781 61 Z M 46.175781 57.140625 " clip-rule="nonzero"/></clipPath><clipPath id="2eb4ac33a9"><path d="M 46.175781 62 L 62.78125 62 L 62.78125 66 L 46.175781 66 Z M 46.175781 62 " clip-rule="nonzero"/></clipPath><clipPath id="46733c2d76"><path d="M 46.175781 67 L 62.78125 67 L 62.78125 70.730469 L 46.175781 70.730469 Z M 46.175781 67 " clip-rule="nonzero"/></clipPath><clipPath id="356c31bed8"><path d="M 78.828125 57.140625 L 95.4375 57.140625 L 95.4375 61 L 78.828125 61 Z M 78.828125 57.140625 " clip-rule="nonzero"/></clipPath><clipPath id="914cca86b3"><path d="M 78.828125 62 L 95.4375 62 L 95.4375 66 L 78.828125 66 Z M 78.828125 62 " clip-rule="nonzero"/></clipPath><clipPath id="2a0ec6642e"><path d="M 78.828125 67 L 95.4375 67 L 95.4375 70.730469 L 78.828125 70.730469 Z M 78.828125 67 " clip-rule="nonzero"/></clipPath><clipPath id="7499e107bd"><path d="M 48 81 L 94 81 L 94 96.25 L 48 96.25 Z M 48 81 " clip-rule="nonzero"/></clipPath><clipPath id="b44bac8d6e"><path d="M 88 79.644531 L 95.777344 79.644531 L 95.777344 87 L 88 87 Z M 88 79.644531 " clip-rule="nonzero"/></clipPath><clipPath id="5c01c80e3d"><path d="M 46.332031 79.644531 L 54 79.644531 L 54 87 L 46.332031 87 Z M 46.332031 79.644531 " clip-rule="nonzero"/></clipPath><clipPath id="d1d98df9d5"><rect x="0" width="359" y="0" height="138"/></clipPath></defs><g clip-path="url(#ee292eb291)"><g transform="matrix(1, 0, 0, 1, 0, -0.000000000000007933)"><g clip-path="url(#d1d98df9d5)"><g clip-path="url(#e8d8537afc)"><path fill="#2a2b2b" d="M 68.839844 31.417969 L 68.839844 2.160156 C 68.839844 0.992188 69.769531 0.0585938 70.921875 0.0585938 C 72.074219 0.0585938 73.019531 0.992188 73.019531 2.160156 L 73.019531 31.417969 C 73.019531 32.574219 72.089844 33.519531 70.921875 33.519531 C 69.769531 33.519531 68.839844 32.589844 68.839844 31.417969 Z M 48.382812 21.699219 L 53.976562 35.222656 C 54.417969 36.285156 55.644531 36.804688 56.707031 36.359375 C 57.769531 35.917969 58.285156 34.6875 57.84375 33.625 L 52.25 20.101562 C 51.804688 19.039062 50.582031 18.519531 49.519531 18.964844 C 48.441406 19.40625 47.9375 20.636719 48.382812 21.699219 C 48.367188 21.699219 48.367188 21.699219 48.382812 21.699219 Z M 20.351562 52.070312 L 33.84375 57.660156 C 34.90625 58.105469 36.128906 57.601562 36.574219 56.523438 C 37.015625 55.457031 36.511719 54.230469 35.4375 53.785156 L 21.945312 48.179688 C 20.882812 47.734375 19.65625 48.238281 19.214844 49.316406 C 18.769531 50.398438 19.273438 51.625 20.351562 52.070312 Z M 119.898438 48.179688 L 106.40625 53.785156 C 105.34375 54.230469 104.828125 55.457031 105.269531 56.523438 C 105.714844 57.585938 106.9375 58.105469 108.003906 57.660156 L 121.492188 52.054688 C 122.558594 51.609375 123.074219 50.382812 122.628906 49.316406 C 122.203125 48.238281 120.976562 47.734375 119.898438 48.179688 Z M 85.152344 36.359375 C 86.214844 36.804688 87.441406 36.300781 87.882812 35.222656 L 93.460938 21.699219 C 93.90625 20.636719 93.402344 19.40625 92.324219 18.964844 C 91.261719 18.519531 90.039062 19.023438 89.59375 20.101562 L 84.015625 33.625 C 83.574219 34.6875 84.074219 35.917969 85.152344 36.359375 Z M 41.664062 44.4375 C 42.476562 45.25 43.804688 45.25 44.632812 44.4375 C 45.445312 43.625 45.445312 42.292969 44.632812 41.476562 L 23.980469 20.769531 C 23.167969 19.957031 21.839844 19.957031 21.027344 20.769531 C 20.21875 21.582031 20.21875 22.914062 21.027344 23.726562 Z M 31.640625 72.882812 C 32.792969 72.882812 33.738281 71.949219 33.738281 70.78125 C 33.738281 69.628906 32.808594 68.683594 31.640625 68.683594 L 2.445312 68.683594 C 1.277344 68.695312 0.347656 69.628906 0.347656 70.78125 C 0.347656 71.9375 1.277344 72.882812 2.445312 72.882812 Z M 139.414062 68.695312 L 110.203125 68.683594 C 109.050781 68.683594 108.105469 69.613281 108.105469 70.78125 C 108.105469 71.9375 109.035156 72.882812 110.203125 72.882812 L 139.414062 72.882812 C 140.566406 72.882812 141.511719 71.949219 141.511719 70.78125 C 141.511719 69.628906 140.566406 68.695312 139.414062 68.695312 Z M 97.226562 44.4375 C 98.054688 45.265625 99.367188 45.265625 100.195312 44.4375 L 120.84375 23.742188 C 121.65625 22.929688 121.65625 21.597656 120.84375 20.785156 C 120.03125 19.96875 118.703125 19.96875 117.890625 20.785156 L 97.226562 41.464844 C 96.398438 42.277344 96.398438 43.609375 97.226562 44.4375 C 97.210938 44.4375 97.226562 44.4375 97.226562 44.4375 Z M 102.9375 72.898438 C 102.984375 72.203125 103.011719 71.492188 103.011719 70.796875 C 103.011719 62.203125 99.675781 54.140625 93.609375 48.0625 C 87.542969 41.980469 79.5 38.636719 70.921875 38.636719 C 62.347656 38.636719 54.300781 41.980469 48.234375 48.0625 C 42.167969 54.140625 38.832031 62.203125 38.832031 70.796875 C 38.832031 71.507812 38.859375 72.203125 38.90625 72.898438 L 43.097656 72.898438 C 43.054688 72.203125 43.023438 71.507812 43.023438 70.796875 C 43.023438 55.355469 55.511719 42.839844 70.921875 42.839844 C 86.332031 42.839844 98.820312 55.355469 98.820312 70.796875 C 98.820312 71.507812 98.792969 72.203125 98.746094 72.898438 Z M 124.816406 77.082031 L 17.042969 77.082031 C 15.890625 77.082031 14.949219 78.03125 14.949219 79.183594 C 14.949219 80.339844 15.878906 81.285156 17.042969 81.285156 L 124.816406 81.285156 C 125.964844 81.285156 126.910156 80.351562 126.910156 79.183594 C 126.910156 78.015625 125.964844 77.082031 124.816406 77.082031 Z M 108.121094 85.472656 L 33.738281 85.472656 C 32.585938 85.472656 31.640625 86.402344 31.640625 87.570312 C 31.640625 88.726562 32.574219 89.671875 33.738281 89.671875 L 108.121094 89.671875 C 109.273438 89.671875 110.214844 88.742188 110.214844 87.570312 C 110.203125 86.417969 109.273438 85.472656 108.121094 85.472656 Z M 88.738281 93.875 L 53.105469 93.875 C 51.953125 93.875 51.007812 94.804688 51.007812 95.972656 C 51.007812 97.128906 51.9375 98.074219 53.105469 98.074219 L 88.738281 98.074219 C 89.890625 98.074219 90.820312 97.128906 90.820312 95.972656 C 90.835938 94.804688 89.90625 93.875 88.738281 93.875 Z M 88.738281 93.875 " fill-opacity="1" fill-rule="nonzero"/></g><g clip-path="url(#6ab4d52c2d)"><g transform="matrix(1, 0, 0, 1, 112, 34)"><g clip-path="url(#b3b84d8256)"><g fill="#ecd11e" fill-opacity="1"><g transform="translate(3.240815, 64.585334)"><g><path d="M 20.964844 -2.019531 C 26.402344 -1.957031 30.511719 -3.003906 33.289062 -5.160156 C 35.867188 -7.160156 37.160156 -10.125 37.160156 -14.054688 C 37.160156 -16.183594 36.695312 -17.9375 35.761719 -19.324219 C 34.726562 -20.859375 33.394531 -22.164062 31.761719 -23.230469 C 29.976562 -24.402344 28.0625 -25.40625 26.023438 -26.238281 C 23.878906 -27.117188 21.863281 -27.882812 19.980469 -28.53125 C 17.9375 -29.234375 16.246094 -29.933594 14.90625 -30.621094 C 12.726562 -31.738281 11.640625 -33.226562 11.640625 -35.089844 C 11.640625 -36.152344 11.898438 -37.105469 12.421875 -37.949219 C 12.929688 -38.769531 13.648438 -39.433594 14.582031 -39.9375 C 16.019531 -40.710938 18.003906 -41.097656 20.535156 -41.097656 C 23.117188 -41.097656 25.28125 -40.335938 27.039062 -38.8125 C 28.753906 -37.320312 29.871094 -35.25 30.382812 -32.597656 L 27.8125 -32.101562 L 27.0625 -34.605469 L 38.027344 -37.898438 L 38.78125 -35.390625 L 36.222656 -34.835938 C 35.285156 -39.167969 33.488281 -42.433594 30.828125 -44.640625 C 28.1875 -46.832031 24.757812 -47.925781 20.535156 -47.925781 C 15.089844 -47.925781 10.992188 -46.847656 8.242188 -44.695312 C 5.6875 -42.695312 4.410156 -39.757812 4.410156 -35.886719 C 4.410156 -33.828125 4.878906 -32.105469 5.808594 -30.71875 C 6.835938 -29.195312 8.160156 -27.914062 9.78125 -26.878906 C 11.5625 -25.746094 13.449219 -24.792969 15.445312 -24.027344 C 17.574219 -23.207031 19.589844 -22.46875 21.488281 -21.8125 C 23.570312 -21.097656 25.292969 -20.347656 26.664062 -19.570312 C 28.777344 -18.371094 29.832031 -16.800781 29.832031 -14.855469 C 29.832031 -13.796875 29.566406 -12.847656 29.03125 -12.007812 C 28.519531 -11.207031 27.796875 -10.558594 26.859375 -10.070312 C 25.433594 -9.320312 23.457031 -8.945312 20.933594 -8.945312 C 18.410156 -8.945312 16.285156 -9.71875 14.558594 -11.257812 C 12.945312 -12.695312 11.804688 -14.625 11.136719 -17.050781 L 13.65625 -17.746094 L 14.414062 -15.242188 L 3.550781 -11.949219 L 2.792969 -14.457031 L 5.347656 -15.015625 C 6.285156 -10.742188 8.085938 -7.488281 10.753906 -5.242188 C 13.382812 -3.035156 16.761719 -1.960938 20.898438 -2.019531 Z M 20.90625 3.214844 L 20.933594 0.597656 L 20.972656 3.214844 C 15.535156 3.289062 11.007812 1.804688 7.386719 -1.238281 C 3.808594 -4.242188 1.425781 -8.464844 0.234375 -13.894531 L -0.28125 -16.257812 L 15.46875 -21.027344 L 16.179688 -18.441406 C 16.574219 -17.007812 17.195312 -15.917969 18.042969 -15.160156 C 18.773438 -14.507812 19.738281 -14.179688 20.933594 -14.179688 C 22.597656 -14.179688 23.765625 -14.355469 24.429688 -14.703125 C 24.511719 -14.746094 24.570312 -14.785156 24.613281 -14.820312 L 24.617188 -14.820312 C 24.605469 -14.800781 24.597656 -14.785156 24.59375 -14.769531 C 24.597656 -14.785156 24.597656 -14.8125 24.597656 -14.855469 C 24.597656 -14.734375 24.621094 -14.644531 24.667969 -14.585938 C 24.574219 -14.703125 24.378906 -14.847656 24.078125 -15.019531 C 22.988281 -15.640625 21.558594 -16.253906 19.78125 -16.867188 C 17.828125 -17.539062 15.753906 -18.296875 13.566406 -19.140625 C 11.242188 -20.035156 9.042969 -21.144531 6.964844 -22.46875 C 4.734375 -23.890625 2.898438 -25.667969 1.46875 -27.796875 C -0.0585938 -30.066406 -0.824219 -32.765625 -0.824219 -35.886719 C -0.824219 -41.457031 1.125 -45.765625 5.015625 -48.816406 C 8.710938 -51.710938 13.886719 -53.160156 20.535156 -53.160156 C 26.015625 -53.160156 30.5625 -51.664062 34.171875 -48.667969 C 37.757812 -45.691406 40.148438 -41.449219 41.335938 -35.941406 L 41.847656 -33.578125 L 25.792969 -28.761719 L 25.246094 -31.601562 C 24.960938 -33.074219 24.414062 -34.15625 23.605469 -34.859375 C 22.835938 -35.527344 21.8125 -35.863281 20.535156 -35.863281 C 18.882812 -35.863281 17.726562 -35.6875 17.070312 -35.332031 C 16.957031 -35.269531 16.890625 -35.226562 16.875 -35.199219 C 16.878906 -35.207031 16.882812 -35.210938 16.882812 -35.214844 C 16.875 -35.1875 16.871094 -35.148438 16.871094 -35.089844 C 16.871094 -35.339844 16.816406 -35.53125 16.699219 -35.664062 C 16.785156 -35.566406 16.984375 -35.4375 17.296875 -35.277344 C 18.414062 -34.699219 19.878906 -34.101562 21.6875 -33.476562 C 23.664062 -32.796875 25.769531 -32 28.007812 -31.082031 C 30.355469 -30.121094 32.5625 -28.964844 34.632812 -27.609375 C 36.851562 -26.152344 38.675781 -24.367188 40.105469 -22.246094 C 41.628906 -19.976562 42.394531 -17.246094 42.394531 -14.054688 C 42.394531 -8.417969 40.425781 -4.070312 36.496094 -1.023438 C 32.757812 1.875 27.5625 3.289062 20.90625 3.214844 Z M 20.90625 3.214844 "/></g></g></g><g fill="#ecd11e" fill-opacity="1"><g transform="translate(42.1697, 64.585334)"><g><path d="M 21.332031 3.316406 C 14.410156 3.316406 9.027344 0.738281 5.179688 -4.417969 C 1.511719 -9.332031 -0.324219 -16.167969 -0.324219 -24.921875 C -0.324219 -33.675781 1.511719 -40.511719 5.179688 -45.429688 C 9.027344 -50.582031 14.410156 -53.160156 21.332031 -53.160156 C 28.324219 -53.160156 33.742188 -50.582031 37.585938 -45.429688 C 41.257812 -40.511719 43.089844 -33.675781 43.089844 -24.921875 C 43.089844 -16.167969 41.257812 -9.332031 37.585938 -4.417969 C 33.742188 0.738281 28.324219 3.316406 21.332031 3.316406 Z M 21.332031 -1.917969 C 26.574219 -1.917969 30.59375 -3.792969 33.394531 -7.546875 C 36.371094 -11.535156 37.859375 -17.328125 37.859375 -24.921875 C 37.859375 -32.519531 36.371094 -38.308594 33.394531 -42.296875 C 30.59375 -46.050781 26.574219 -47.925781 21.332031 -47.925781 C 16.160156 -47.925781 12.175781 -46.050781 9.375 -42.296875 C 6.398438 -38.308594 4.910156 -32.519531 4.910156 -24.921875 C 4.910156 -17.328125 6.398438 -11.535156 9.375 -7.546875 C 12.175781 -3.792969 16.160156 -1.917969 21.332031 -1.917969 Z M 21.433594 -15.179688 C 21.835938 -15.179688 22.175781 -15.28125 22.460938 -15.484375 C 22.839844 -15.757812 23.191406 -16.226562 23.515625 -16.890625 C 24.375 -18.671875 24.839844 -21.363281 24.898438 -24.964844 L 27.515625 -24.921875 L 24.898438 -24.878906 C 24.839844 -28.480469 24.375 -31.171875 23.515625 -32.953125 C 23.191406 -33.617188 22.839844 -34.089844 22.460938 -34.363281 C 22.175781 -34.566406 21.835938 -34.667969 21.433594 -34.667969 C 20.984375 -34.667969 20.601562 -34.558594 20.285156 -34.339844 C 19.886719 -34.0625 19.519531 -33.589844 19.1875 -32.925781 C 18.308594 -31.164062 17.871094 -28.5 17.871094 -24.921875 C 17.871094 -21.347656 18.308594 -18.679688 19.1875 -16.921875 C 19.519531 -16.257812 19.886719 -15.785156 20.285156 -15.507812 C 20.601562 -15.289062 20.984375 -15.179688 21.433594 -15.179688 Z M 21.433594 -9.945312 C 19.890625 -9.945312 18.511719 -10.367188 17.296875 -11.210938 C 16.167969 -11.996094 15.238281 -13.121094 14.507812 -14.582031 C 13.257812 -17.074219 12.636719 -20.523438 12.636719 -24.921875 C 12.636719 -29.320312 13.257812 -32.769531 14.507812 -35.265625 C 15.238281 -36.726562 16.167969 -37.847656 17.296875 -38.636719 C 18.511719 -39.480469 19.890625 -39.902344 21.433594 -39.902344 C 22.960938 -39.902344 24.320312 -39.472656 25.515625 -38.613281 C 26.613281 -37.820312 27.515625 -36.695312 28.226562 -35.234375 C 29.421875 -32.761719 30.058594 -29.339844 30.132812 -24.964844 L 30.132812 -24.878906 C 30.058594 -20.507812 29.421875 -17.082031 28.226562 -14.609375 C 27.515625 -13.148438 26.613281 -12.023438 25.515625 -11.234375 C 24.320312 -10.375 22.960938 -9.945312 21.433594 -9.945312 Z M 21.433594 -9.945312 "/></g></g></g><g fill="#ecd11e" fill-opacity="1"><g transform="translate(81.896112, 64.585334)"><g><path d="M 36.410156 -13.257812 L 36.410156 2.617188 L 0.175781 2.617188 L 0.175781 -52.460938 L 18.667969 -52.460938 L 18.667969 -13.257812 L 16.050781 -13.257812 L 16.050781 -15.875 L 36.410156 -15.875 Z M 31.179688 -13.257812 L 33.796875 -13.257812 L 33.796875 -10.640625 L 13.433594 -10.640625 L 13.433594 -49.84375 L 16.050781 -49.84375 L 16.050781 -47.226562 L 2.792969 -47.226562 L 2.792969 -49.84375 L 5.410156 -49.84375 L 5.410156 0 L 2.792969 0 L 2.792969 -2.617188 L 33.796875 -2.617188 L 33.796875 0 L 31.179688 0 Z M 31.179688 -13.257812 "/></g></g></g><g fill="#ecd11e" fill-opacity="1"><g transform="translate(113.747011, 64.585334)"><g><path d="M -0.324219 -34.121094 L 22.65625 -34.121094 L 22.65625 -15.726562 L -0.324219 -15.726562 Z M 4.910156 -28.886719 L 4.910156 -20.960938 L 17.421875 -20.960938 L 17.421875 -28.886719 Z M 4.910156 -28.886719 "/></g></g></g><g fill="#ecd11e" fill-opacity="1"><g transform="translate(132.040071, 64.585334)"><g><path d="M 59.46875 -49.234375 L 47.023438 2.617188 L 31.765625 2.617188 L 26.347656 -23.390625 L 28.910156 -23.925781 L 31.46875 -23.382812 L 25.945312 2.617188 L 10.796875 2.617188 L -2.421875 -52.460938 L 15.234375 -52.460938 L 21.113281 -20.917969 L 18.542969 -20.4375 L 15.96875 -20.917969 L 21.851562 -52.460938 L 35.863281 -52.460938 L 41.847656 -20.925781 L 39.277344 -20.4375 L 36.707031 -20.917969 L 42.585938 -52.460938 L 60.242188 -52.460938 Z M 54.378906 -50.457031 L 56.921875 -49.84375 L 56.921875 -47.226562 L 44.761719 -47.226562 L 44.761719 -49.84375 L 47.332031 -49.367188 L 41.851562 -19.957031 L 36.707031 -19.949219 L 31.125 -49.355469 L 33.695312 -49.84375 L 33.695312 -47.226562 L 24.027344 -47.226562 L 24.027344 -49.84375 L 26.597656 -49.367188 L 21.113281 -19.957031 L 15.96875 -19.957031 L 10.488281 -49.367188 L 13.058594 -49.84375 L 13.058594 -47.226562 L 0.898438 -47.226562 L 0.898438 -49.84375 L 3.441406 -50.457031 L 15.40625 -0.609375 L 12.859375 0 L 12.859375 -2.617188 L 23.824219 -2.617188 L 23.824219 0 L 21.265625 -0.542969 L 26.351562 -24.46875 L 31.472656 -24.460938 L 36.457031 -0.535156 L 33.894531 0 L 33.894531 -2.617188 L 44.960938 -2.617188 L 44.960938 0 L 42.414062 -0.609375 Z M 54.378906 -50.457031 "/></g></g></g><g fill="#ecd11e" fill-opacity="1"><g transform="translate(187.318108, 64.585334)"><g><path d="M 0.175781 -52.460938 L 18.667969 -52.460938 L 18.667969 2.617188 L 0.175781 2.617188 Z M 5.410156 -47.226562 L 5.410156 -2.617188 L 13.433594 -2.617188 L 13.433594 -47.226562 Z M 5.410156 -47.226562 "/></g></g></g><g fill="#ecd11e" fill-opacity="1"><g transform="translate(203.617381, 64.585334)"><g><path d="M 0.175781 0 L 0.175781 -52.460938 L 15.503906 -52.460938 L 27.382812 -27.75 L 25.023438 -26.617188 L 22.40625 -26.617188 L 22.40625 -52.460938 L 40.898438 -52.460938 L 40.898438 2.617188 L 25.566406 2.617188 L 13.691406 -22.199219 L 16.050781 -23.328125 L 18.667969 -23.328125 L 18.667969 2.617188 L 0.175781 2.617188 Z M 5.410156 0 L 2.792969 0 L 2.792969 -2.617188 L 16.050781 -2.617188 L 16.050781 0 L 13.433594 0 L 13.433594 -23.328125 L 18.410156 -24.457031 L 29.574219 -1.128906 L 27.214844 0 L 27.214844 -2.617188 L 38.28125 -2.617188 L 38.28125 0 L 35.664062 0 L 35.664062 -49.84375 L 38.28125 -49.84375 L 38.28125 -47.226562 L 25.023438 -47.226562 L 25.023438 -49.84375 L 27.640625 -49.84375 L 27.640625 -26.617188 L 22.664062 -25.484375 L 11.5 -48.710938 L 13.855469 -49.84375 L 13.855469 -47.226562 L 2.792969 -47.226562 L 2.792969 -49.84375 L 5.410156 -49.84375 Z M 5.410156 0 "/></g></g></g><g fill="#000000" fill-opacity="1"><g transform="translate(3.240815, 64.585334)"><g><path d="M 20.9375 0.59375 C 26.976562 0.664062 31.628906 -0.554688 34.890625 -3.078125 C 38.148438 -5.609375 39.78125 -9.269531 39.78125 -14.0625 C 39.78125 -16.71875 39.164062 -18.957031 37.9375 -20.78125 C 36.707031 -22.613281 35.128906 -24.160156 33.203125 -25.421875 C 31.273438 -26.679688 29.210938 -27.757812 27.015625 -28.65625 C 24.816406 -29.550781 22.753906 -30.332031 20.828125 -31 C 18.898438 -31.664062 17.320312 -32.3125 16.09375 -32.9375 C 14.863281 -33.570312 14.25 -34.289062 14.25 -35.09375 C 14.25 -37.351562 16.34375 -38.484375 20.53125 -38.484375 C 22.457031 -38.484375 24.050781 -37.929688 25.3125 -36.828125 C 26.582031 -35.734375 27.414062 -34.15625 27.8125 -32.09375 L 38.78125 -35.390625 C 37.71875 -40.304688 35.625 -44.0625 32.5 -46.65625 C 29.375 -49.25 25.382812 -50.546875 20.53125 -50.546875 C 14.488281 -50.546875 9.851562 -49.28125 6.625 -46.75 C 3.40625 -44.226562 1.796875 -40.609375 1.796875 -35.890625 C 1.796875 -33.296875 2.410156 -31.082031 3.640625 -29.25 C 4.867188 -27.425781 6.445312 -25.898438 8.375 -24.671875 C 10.300781 -23.441406 12.34375 -22.410156 14.5 -21.578125 C 16.664062 -20.753906 18.710938 -20.007812 20.640625 -19.34375 C 22.566406 -18.675781 24.144531 -17.992188 25.375 -17.296875 C 26.601562 -16.597656 27.21875 -15.785156 27.21875 -14.859375 C 27.21875 -12.660156 25.125 -11.5625 20.9375 -11.5625 C 19.070312 -11.5625 17.523438 -12.109375 16.296875 -13.203125 C 15.066406 -14.304688 14.1875 -15.820312 13.65625 -17.75 L 2.796875 -14.453125 C 3.859375 -9.597656 5.945312 -5.859375 9.0625 -3.234375 C 12.1875 -0.609375 16.144531 0.664062 20.9375 0.59375 Z M 20.9375 0.59375 "/></g></g></g><g fill="#000000" fill-opacity="1"><g transform="translate(42.1697, 64.585334)"><g><path d="M 21.328125 0.703125 C 15.285156 0.703125 10.601562 -1.519531 7.28125 -5.96875 C 3.957031 -10.425781 2.296875 -16.742188 2.296875 -24.921875 C 2.296875 -33.097656 3.957031 -39.410156 7.28125 -43.859375 C 10.601562 -48.316406 15.285156 -50.546875 21.328125 -50.546875 C 27.441406 -50.546875 32.160156 -48.316406 35.484375 -43.859375 C 38.804688 -39.410156 40.46875 -33.097656 40.46875 -24.921875 C 40.46875 -16.742188 38.804688 -10.425781 35.484375 -5.96875 C 32.160156 -1.519531 27.441406 0.703125 21.328125 0.703125 Z M 21.4375 -12.5625 C 23.363281 -12.5625 24.84375 -13.625 25.875 -15.75 C 26.90625 -17.875 27.453125 -20.929688 27.515625 -24.921875 C 27.453125 -28.910156 26.90625 -31.96875 25.875 -34.09375 C 24.84375 -36.21875 23.363281 -37.28125 21.4375 -37.28125 C 19.4375 -37.28125 17.90625 -36.21875 16.84375 -34.09375 C 15.78125 -31.96875 15.25 -28.910156 15.25 -24.921875 C 15.25 -20.929688 15.78125 -17.875 16.84375 -15.75 C 17.90625 -13.625 19.4375 -12.5625 21.4375 -12.5625 Z M 21.4375 -12.5625 "/></g></g></g><g fill="#000000" fill-opacity="1"><g transform="translate(81.896112, 64.585334)"><g><path d="M 33.796875 -13.265625 L 33.796875 0 L 2.796875 0 L 2.796875 -49.84375 L 16.046875 -49.84375 L 16.046875 -13.265625 Z M 33.796875 -13.265625 "/></g></g></g><g fill="#000000" fill-opacity="1"><g transform="translate(113.747011, 64.585334)"><g><path d="M 20.03125 -31.5 L 20.03125 -18.34375 L 2.296875 -18.34375 L 2.296875 -31.5 Z M 20.03125 -31.5 "/></g></g></g><g fill="#000000" fill-opacity="1"><g transform="translate(132.040071, 64.585334)"><g><path d="M 56.921875 -49.84375 L 44.953125 0 L 33.890625 0 L 28.90625 -23.921875 L 23.828125 0 L 12.859375 0 L 0.890625 -49.84375 L 13.0625 -49.84375 L 18.546875 -20.4375 L 24.03125 -49.84375 L 33.6875 -49.84375 L 39.28125 -20.4375 L 44.765625 -49.84375 Z M 56.921875 -49.84375 "/></g></g></g><g fill="#000000" fill-opacity="1"><g transform="translate(187.318108, 64.585334)"><g><path d="M 16.046875 -49.84375 L 16.046875 0 L 2.796875 0 L 2.796875 -49.84375 Z M 16.046875 -49.84375 "/></g></g></g><g fill="#000000" fill-opacity="1"><g transform="translate(203.617381, 64.585334)"><g><path d="M 2.796875 0 L 2.796875 -49.84375 L 13.859375 -49.84375 L 25.015625 -26.609375 L 25.015625 -49.84375 L 38.28125 -49.84375 L 38.28125 0 L 27.21875 0 L 16.046875 -23.328125 L 16.046875 0 Z M 2.796875 0 "/></g></g></g></g></g></g><g clip-path="url(#838bf92aa1)"><g transform="matrix(1, 0, 0, 1, 214, 92)"><g clip-path="url(#214a0e7cd9)"><g fill="#191919" fill-opacity="1"><g transform="translate(1.083762, 31.434491)"><g><path d="M 21.1875 -15.953125 C 22.082031 -14.910156 22.585938 -13.757812 22.703125 -12.5 C 22.828125 -11.25 22.664062 -10.015625 22.21875 -8.796875 C 21.769531 -7.578125 21.15625 -6.46875 20.375 -5.46875 C 19.71875 -4.65625 18.984375 -3.921875 18.171875 -3.265625 C 17.367188 -2.617188 16.507812 -2.050781 15.59375 -1.5625 C 14.832031 -1.15625 13.992188 -0.785156 13.078125 -0.453125 C 12.160156 -0.128906 11.253906 -0.046875 10.359375 -0.203125 C 9.617188 -0.304688 8.988281 -0.640625 8.46875 -1.203125 C 7.789062 1.253906 7.257812 3.738281 6.875 6.25 C 6.820312 6.445312 6.703125 6.53125 6.515625 6.5 C 6.335938 6.476562 6.140625 6.382812 5.921875 6.21875 C 5.703125 6.0625 5.515625 5.867188 5.359375 5.640625 C 5.210938 5.410156 5.148438 5.195312 5.171875 5 C 6.253906 -1.644531 8.210938 -8.03125 11.046875 -14.15625 C 11.140625 -14.375 11.289062 -14.46875 11.5 -14.4375 C 11.707031 -14.40625 11.914062 -14.300781 12.125 -14.125 C 12.34375 -13.945312 12.519531 -13.75 12.65625 -13.53125 C 12.789062 -13.320312 12.8125 -13.128906 12.71875 -12.953125 C 11.914062 -11.179688 11.175781 -9.367188 10.5 -7.515625 C 10.78125 -7.734375 11.082031 -7.929688 11.40625 -8.109375 C 11.5625 -8.191406 11.75 -8.179688 11.96875 -8.078125 C 12.1875 -7.972656 12.378906 -7.8125 12.546875 -7.59375 C 12.722656 -7.375 12.832031 -7.15625 12.875 -6.9375 C 12.925781 -6.71875 12.84375 -6.539062 12.625 -6.40625 C 11.925781 -6.039062 11.25 -5.503906 10.59375 -4.796875 C 9.9375 -4.085938 9.546875 -3.316406 9.421875 -2.484375 C 9.378906 -2.222656 9.394531 -2.054688 9.46875 -1.984375 C 9.539062 -1.921875 9.695312 -1.878906 9.9375 -1.859375 C 10.113281 -1.859375 10.296875 -1.863281 10.484375 -1.875 C 10.671875 -1.882812 10.847656 -1.914062 11.015625 -1.96875 C 11.410156 -2.050781 11.789062 -2.15625 12.15625 -2.28125 C 12.53125 -2.414062 12.894531 -2.5625 13.25 -2.71875 C 14.644531 -3.320312 15.945312 -4.140625 17.15625 -5.171875 C 18.363281 -6.210938 19.316406 -7.410156 20.015625 -8.765625 C 20.335938 -9.398438 20.59375 -10.082031 20.78125 -10.8125 C 20.96875 -11.539062 21.039062 -12.265625 21 -12.984375 C 20.957031 -13.703125 20.75 -14.359375 20.375 -14.953125 C 20 -15.554688 19.429688 -16.035156 18.671875 -16.390625 C 17.671875 -16.867188 16.613281 -17.078125 15.5 -17.015625 C 14.382812 -16.960938 13.28125 -16.753906 12.1875 -16.390625 C 11.101562 -16.035156 10.09375 -15.648438 9.15625 -15.234375 C 8.4375 -14.910156 7.75 -14.546875 7.09375 -14.140625 C 6.4375 -13.742188 5.804688 -13.289062 5.203125 -12.78125 C 4.585938 -12.257812 4.050781 -11.71875 3.59375 -11.15625 C 3.488281 -11.019531 3.378906 -10.875 3.265625 -10.71875 C 3.160156 -10.570312 3.050781 -10.421875 2.9375 -10.265625 C 2.914062 -10.203125 2.835938 -10.0625 2.703125 -9.84375 C 2.578125 -9.625 2.523438 -9.503906 2.546875 -9.484375 C 2.785156 -9.085938 2.832031 -8.804688 2.6875 -8.640625 C 2.550781 -8.484375 2.335938 -8.4375 2.046875 -8.5 C 1.753906 -8.5625 1.507812 -8.75 1.3125 -9.0625 C 0.914062 -9.71875 0.828125 -10.359375 1.046875 -10.984375 C 1.265625 -11.617188 1.625 -12.210938 2.125 -12.765625 C 2.625 -13.328125 3.101562 -13.8125 3.5625 -14.21875 C 4.457031 -14.988281 5.421875 -15.644531 6.453125 -16.1875 C 7.492188 -16.726562 8.546875 -17.207031 9.609375 -17.625 C 10.921875 -18.101562 12.28125 -18.425781 13.6875 -18.59375 C 15.09375 -18.757812 16.445312 -18.648438 17.75 -18.265625 C 19.0625 -17.878906 20.207031 -17.109375 21.1875 -15.953125 Z M 21.1875 -15.953125 "/></g></g></g><g fill="#191919" fill-opacity="1"><g transform="translate(24.798966, 31.434491)"><g><path d="M 7.484375 -4.015625 C 7.679688 -4.210938 7.890625 -4.269531 8.109375 -4.1875 C 8.328125 -4.101562 8.488281 -3.953125 8.59375 -3.734375 C 8.707031 -3.515625 8.664062 -3.304688 8.46875 -3.109375 C 7.726562 -2.296875 6.847656 -1.5625 5.828125 -0.90625 C 4.816406 -0.257812 3.789062 0.226562 2.75 0.5625 C 2.25 0.707031 1.765625 0.785156 1.296875 0.796875 C 0.828125 0.804688 0.40625 0.59375 0.03125 0.15625 C -0.332031 -0.289062 -0.554688 -0.785156 -0.640625 -1.328125 C -0.734375 -1.878906 -0.71875 -2.441406 -0.59375 -3.015625 C -0.4375 -3.773438 -0.222656 -4.53125 0.046875 -5.28125 C 0.316406 -6.03125 0.582031 -6.773438 0.84375 -7.515625 C 1.375 -9.066406 1.921875 -10.617188 2.484375 -12.171875 C 3.078125 -13.753906 3.679688 -15.34375 4.296875 -16.9375 C 4.921875 -18.53125 5.570312 -20.113281 6.25 -21.6875 C 6.332031 -21.875 6.476562 -21.957031 6.6875 -21.9375 C 6.894531 -21.914062 7.109375 -21.816406 7.328125 -21.640625 C 7.546875 -21.472656 7.71875 -21.273438 7.84375 -21.046875 C 7.976562 -20.816406 8.003906 -20.613281 7.921875 -20.4375 C 7.191406 -18.71875 6.488281 -16.988281 5.8125 -15.25 C 5.144531 -13.519531 4.492188 -11.785156 3.859375 -10.046875 C 3.222656 -8.316406 2.625 -6.582031 2.0625 -4.84375 C 1.945312 -4.5625 1.796875 -4.195312 1.609375 -3.75 C 1.429688 -3.300781 1.269531 -2.832031 1.125 -2.34375 C 0.988281 -1.851562 0.941406 -1.398438 0.984375 -0.984375 C 1.785156 -1.109375 2.632812 -1.34375 3.53125 -1.6875 C 4.425781 -2.039062 5.234375 -2.4375 5.953125 -2.875 C 6.671875 -3.3125 7.179688 -3.691406 7.484375 -4.015625 Z M 7.484375 -4.015625 "/></g></g></g><g fill="#191919" fill-opacity="1"><g transform="translate(32.420543, 31.434491)"><g><path d="M 12.265625 -4.1875 C 12.484375 -4.363281 12.71875 -4.390625 12.96875 -4.265625 C 13.21875 -4.148438 13.40625 -3.972656 13.53125 -3.734375 C 13.664062 -3.492188 13.632812 -3.285156 13.4375 -3.109375 C 12.675781 -2.429688 11.90625 -1.765625 11.125 -1.109375 C 10.351562 -0.453125 9.535156 0.125 8.671875 0.625 C 8.273438 0.863281 7.84375 1.085938 7.375 1.296875 C 6.90625 1.503906 6.429688 1.570312 5.953125 1.5 C 5.453125 1.457031 5.015625 1.257812 4.640625 0.90625 C 4.273438 0.5625 4.015625 0.148438 3.859375 -0.328125 C 3.773438 -0.628906 3.742188 -0.921875 3.765625 -1.203125 C 3.785156 -1.492188 3.835938 -1.769531 3.921875 -2.03125 C 3.046875 -1.457031 2.21875 -0.804688 1.4375 -0.078125 C 0.65625 0.648438 -0.238281 1.210938 -1.25 1.609375 C -1.457031 1.691406 -1.6875 1.648438 -1.9375 1.484375 C -2.195312 1.328125 -2.398438 1.113281 -2.546875 0.84375 C -2.703125 0.582031 -2.757812 0.34375 -2.71875 0.125 C -2.5 -0.851562 -2.117188 -1.804688 -1.578125 -2.734375 C -1.046875 -3.660156 -0.378906 -4.425781 0.421875 -5.03125 C 1.078125 -5.507812 1.769531 -5.703125 2.5 -5.609375 C 3.226562 -5.515625 3.832031 -5.160156 4.3125 -4.546875 C 4.488281 -4.609375 4.664062 -4.671875 4.84375 -4.734375 C 5.0625 -4.785156 5.3125 -4.710938 5.59375 -4.515625 C 5.769531 -4.378906 5.929688 -4.21875 6.078125 -4.03125 C 6.234375 -3.851562 6.320312 -3.675781 6.34375 -3.5 C 6.363281 -3.382812 6.351562 -3.285156 6.3125 -3.203125 C 6.289062 -2.941406 6.234375 -2.691406 6.140625 -2.453125 C 6.054688 -2.210938 5.972656 -1.960938 5.890625 -1.703125 C 5.796875 -1.460938 5.726562 -1.222656 5.6875 -0.984375 C 5.644531 -0.742188 5.59375 -0.492188 5.53125 -0.234375 C 5.550781 -0.234375 5.566406 -0.234375 5.578125 -0.234375 C 5.585938 -0.234375 5.601562 -0.234375 5.625 -0.234375 C 6.101562 -0.296875 6.65625 -0.476562 7.28125 -0.78125 C 7.914062 -1.09375 8.554688 -1.457031 9.203125 -1.875 C 9.847656 -2.300781 10.441406 -2.722656 10.984375 -3.140625 C 11.535156 -3.554688 11.960938 -3.90625 12.265625 -4.1875 Z M 0.453125 -2 C 0.890625 -2.34375 1.316406 -2.679688 1.734375 -3.015625 C 2.148438 -3.359375 2.585938 -3.671875 3.046875 -3.953125 C 3.023438 -3.953125 3.015625 -3.953125 3.015625 -3.953125 C 2.960938 -3.953125 2.90625 -3.945312 2.84375 -3.9375 C 2.78125 -3.925781 2.71875 -3.910156 2.65625 -3.890625 C 2.476562 -3.847656 2.304688 -3.769531 2.140625 -3.65625 C 1.972656 -3.550781 1.828125 -3.441406 1.703125 -3.328125 C 1.460938 -3.140625 1.242188 -2.9375 1.046875 -2.71875 C 0.847656 -2.5 0.671875 -2.28125 0.515625 -2.0625 C 0.492188 -2.039062 0.484375 -2.023438 0.484375 -2.015625 C 0.484375 -2.003906 0.472656 -2 0.453125 -2 Z M 0.453125 -2 "/></g></g></g><g clip-path="url(#f1beda7a61)"><g fill="#191919" fill-opacity="1"><g transform="translate(44.883296, 31.434491)"><g><path d="M 13.90625 -4.21875 C 14.113281 -4.351562 14.335938 -4.335938 14.578125 -4.171875 C 14.828125 -4.003906 14.992188 -3.796875 15.078125 -3.546875 C 15.160156 -3.296875 15.070312 -3.09375 14.8125 -2.9375 C 13.3125 -2.050781 11.878906 -1.035156 10.515625 0.109375 C 9.148438 1.253906 7.847656 2.4375 6.609375 3.65625 C 4.878906 7.238281 2.816406 10.597656 0.421875 13.734375 C 0.273438 13.929688 0.0820312 13.960938 -0.15625 13.828125 C -0.394531 13.703125 -0.613281 13.519531 -0.8125 13.28125 C -1.007812 13.039062 -1.128906 12.851562 -1.171875 12.71875 C -1.460938 11.695312 -1.398438 10.71875 -0.984375 9.78125 C -0.566406 8.84375 -0.0507812 7.96875 0.5625 7.15625 C 1.082031 6.4375 1.644531 5.742188 2.25 5.078125 C 2.863281 4.421875 3.476562 3.773438 4.09375 3.140625 C 4.375 2.859375 4.675781 2.550781 5 2.21875 C 5.757812 0.675781 6.4375 -0.910156 7.03125 -2.546875 C 6.3125 -1.960938 5.582031 -1.421875 4.84375 -0.921875 C 4.289062 -0.566406 3.726562 -0.226562 3.15625 0.09375 C 2.582031 0.425781 1.988281 0.644531 1.375 0.75 C 0.757812 0.863281 0.113281 0.773438 -0.5625 0.484375 C -0.726562 0.398438 -0.921875 0.238281 -1.140625 0 C -1.359375 -0.238281 -1.457031 -0.476562 -1.4375 -0.71875 C -1.28125 -2.457031 -0.660156 -4.003906 0.421875 -5.359375 C 0.554688 -5.515625 0.734375 -5.550781 0.953125 -5.46875 C 1.171875 -5.394531 1.375 -5.257812 1.5625 -5.0625 C 1.757812 -4.875 1.898438 -4.664062 1.984375 -4.4375 C 2.078125 -4.207031 2.054688 -4.003906 1.921875 -3.828125 C 1.234375 -2.953125 0.753906 -1.992188 0.484375 -0.953125 C 0.796875 -1.015625 1.097656 -1.117188 1.390625 -1.265625 C 1.679688 -1.421875 1.9375 -1.566406 2.15625 -1.703125 C 2.570312 -1.941406 2.960938 -2.1875 3.328125 -2.4375 C 3.703125 -2.6875 4.078125 -2.953125 4.453125 -3.234375 C 5.171875 -3.753906 5.859375 -4.300781 6.515625 -4.875 C 7.179688 -5.457031 7.832031 -6.066406 8.46875 -6.703125 C 8.664062 -6.898438 8.898438 -6.914062 9.171875 -6.75 C 9.441406 -6.59375 9.675781 -6.363281 9.875 -6.0625 C 10.070312 -5.769531 10.140625 -5.523438 10.078125 -5.328125 C 9.660156 -3.929688 9.191406 -2.523438 8.671875 -1.109375 C 9.429688 -1.742188 10.28125 -2.304688 11.21875 -2.796875 C 12.15625 -3.285156 13.050781 -3.757812 13.90625 -4.21875 Z M 13.90625 -4.21875 "/></g></g></g></g><g fill="#191919" fill-opacity="1"><g transform="translate(59.014291, 31.434491)"><g/></g></g><g fill="#191919" fill-opacity="1"><g transform="translate(71.346203, 31.434491)"><g><path d="M 7.984375 -2.78125 C 8.148438 -2.90625 8.347656 -2.925781 8.578125 -2.84375 C 8.804688 -2.757812 9.019531 -2.613281 9.21875 -2.40625 C 9.414062 -2.195312 9.550781 -1.984375 9.625 -1.765625 C 9.707031 -1.546875 9.671875 -1.375 9.515625 -1.25 C 9.210938 -1.007812 8.90625 -0.742188 8.59375 -0.453125 C 8.289062 -0.171875 7.976562 0.0976562 7.65625 0.359375 C 7.71875 0.535156 7.769531 0.695312 7.8125 0.84375 C 7.90625 1.0625 7.878906 1.222656 7.734375 1.328125 C 7.585938 1.441406 7.421875 1.476562 7.234375 1.4375 C 7.035156 1.394531 6.835938 1.285156 6.640625 1.109375 C 6.066406 1.503906 5.457031 1.757812 4.8125 1.875 C 4.175781 2 3.488281 1.863281 2.75 1.46875 C 1.9375 1.050781 1.410156 0.507812 1.171875 -0.15625 C 0.929688 -0.832031 0.890625 -1.550781 1.046875 -2.3125 C 1.203125 -3.082031 1.472656 -3.804688 1.859375 -4.484375 C 2.234375 -5.160156 2.660156 -5.796875 3.140625 -6.390625 C 3.617188 -6.992188 4.109375 -7.597656 4.609375 -8.203125 C 4.628906 -8.660156 4.671875 -9.109375 4.734375 -9.546875 C 4.785156 -9.878906 4.867188 -10.300781 4.984375 -10.8125 C 5.109375 -11.320312 5.265625 -11.851562 5.453125 -12.40625 C 5.648438 -12.96875 5.890625 -13.453125 6.171875 -13.859375 C 6.460938 -14.273438 6.800781 -14.539062 7.1875 -14.65625 C 7.582031 -14.78125 8.03125 -14.671875 8.53125 -14.328125 C 9.125 -13.867188 9.453125 -13.359375 9.515625 -12.796875 C 9.578125 -12.242188 9.484375 -11.664062 9.234375 -11.0625 C 8.984375 -10.46875 8.65625 -9.894531 8.25 -9.34375 C 7.851562 -8.800781 7.488281 -8.328125 7.15625 -7.921875 C 7.03125 -7.765625 6.894531 -7.597656 6.75 -7.421875 C 6.613281 -7.242188 6.46875 -7.082031 6.3125 -6.9375 C 6.289062 -6.0625 6.335938 -5.195312 6.453125 -4.34375 C 6.578125 -3.5 6.75 -2.660156 6.96875 -1.828125 C 7.144531 -2.003906 7.3125 -2.164062 7.46875 -2.3125 C 7.632812 -2.46875 7.804688 -2.625 7.984375 -2.78125 Z M 3.171875 0.125 C 3.429688 0.175781 3.703125 0.171875 3.984375 0.109375 C 4.273438 0.0546875 4.550781 -0.0195312 4.8125 -0.125 C 5.113281 -0.28125 5.425781 -0.488281 5.75 -0.75 C 5.53125 -1.445312 5.332031 -2.15625 5.15625 -2.875 C 4.988281 -3.59375 4.847656 -4.3125 4.734375 -5.03125 C 4.328125 -4.488281 3.945312 -3.925781 3.59375 -3.34375 C 3.25 -2.769531 2.976562 -2.15625 2.78125 -1.5 C 2.664062 -1.195312 2.601562 -0.863281 2.59375 -0.5 C 2.582031 -0.144531 2.773438 0.0625 3.171875 0.125 Z M 3.171875 0.125 "/></g></g></g><g fill="#191919" fill-opacity="1"><g transform="translate(81.944446, 31.434491)"><g/></g></g><g fill="#191919" fill-opacity="1"><g transform="translate(94.276357, 31.434491)"><g><path d="M 22.109375 -13.078125 C 22.128906 -13.335938 22.234375 -13.476562 22.421875 -13.5 C 22.609375 -13.53125 22.8125 -13.472656 23.03125 -13.328125 C 23.257812 -13.179688 23.457031 -13.003906 23.625 -12.796875 C 23.789062 -12.597656 23.863281 -12.398438 23.84375 -12.203125 C 23.664062 -10.710938 23.367188 -9.253906 22.953125 -7.828125 C 22.546875 -6.398438 21.992188 -5.023438 21.296875 -3.703125 C 20.597656 -2.390625 19.800781 -1.15625 18.90625 0 C 18.53125 0.476562 18.078125 1 17.546875 1.5625 C 17.015625 2.132812 16.421875 2.484375 15.765625 2.609375 C 15.191406 2.742188 14.675781 2.613281 14.21875 2.21875 C 13.769531 1.832031 13.457031 1.390625 13.28125 0.890625 C 13.0625 0.316406 12.988281 -0.28125 13.0625 -0.90625 C 13.132812 -1.539062 13.207031 -2.144531 13.28125 -2.71875 C 13.320312 -3.082031 13.363281 -3.445312 13.40625 -3.8125 C 13.445312 -4.1875 13.492188 -4.5625 13.546875 -4.9375 C 12.691406 -3.625 11.828125 -2.378906 10.953125 -1.203125 C 9.910156 0.191406 8.8125 1.539062 7.65625 2.84375 C 7.175781 3.414062 6.671875 3.953125 6.140625 4.453125 C 5.617188 4.953125 5 5.300781 4.28125 5.5 C 3.957031 5.582031 3.617188 5.460938 3.265625 5.140625 C 2.921875 4.828125 2.757812 4.519531 2.78125 4.21875 C 2.84375 2.71875 3.144531 1.269531 3.6875 -0.125 C 4.238281 -1.519531 4.796875 -2.894531 5.359375 -4.25 C 5.953125 -5.707031 6.546875 -7.164062 7.140625 -8.625 C 7.742188 -10.09375 8.347656 -11.554688 8.953125 -13.015625 C 9.109375 -13.410156 9.269531 -13.796875 9.4375 -14.171875 C 9.601562 -14.554688 9.757812 -14.945312 9.90625 -15.34375 C 9.945312 -15.46875 9.992188 -15.597656 10.046875 -15.734375 C 10.109375 -15.878906 10.160156 -16.019531 10.203125 -16.15625 C 10.203125 -16.175781 10.203125 -16.195312 10.203125 -16.21875 C 10.203125 -16.238281 10.203125 -16.257812 10.203125 -16.28125 C 10.179688 -16.28125 10.160156 -16.28125 10.140625 -16.28125 C 9.878906 -16.0625 9.578125 -15.882812 9.234375 -15.75 C 8.898438 -15.625 8.59375 -15.476562 8.3125 -15.3125 C 7.757812 -14.957031 7.222656 -14.570312 6.703125 -14.15625 C 6.023438 -13.613281 5.359375 -12.992188 4.703125 -12.296875 C 4.054688 -11.597656 3.539062 -10.832031 3.15625 -10 C 2.769531 -9.175781 2.625 -8.296875 2.71875 -7.359375 C 2.757812 -7.097656 2.664062 -6.960938 2.4375 -6.953125 C 2.207031 -6.941406 2.015625 -6.96875 1.859375 -7.03125 C 1.640625 -7.132812 1.445312 -7.296875 1.28125 -7.515625 C 1.125 -7.734375 1.023438 -7.972656 0.984375 -8.234375 C 0.867188 -9.304688 1.035156 -10.316406 1.484375 -11.265625 C 1.929688 -12.210938 2.53125 -13.082031 3.28125 -13.875 C 4.039062 -14.675781 4.8125 -15.367188 5.59375 -15.953125 C 5.914062 -16.222656 6.300781 -16.519531 6.75 -16.84375 C 7.195312 -17.164062 7.65625 -17.445312 8.125 -17.6875 C 8.59375 -17.925781 9.054688 -18.070312 9.515625 -18.125 C 10.128906 -18.164062 10.675781 -17.929688 11.15625 -17.421875 C 11.632812 -16.921875 11.894531 -16.378906 11.9375 -15.796875 C 11.976562 -15.441406 11.9375 -15.085938 11.8125 -14.734375 C 11.695312 -14.390625 11.578125 -14.054688 11.453125 -13.734375 C 11.253906 -13.253906 11.054688 -12.78125 10.859375 -12.3125 C 10.660156 -11.84375 10.460938 -11.367188 10.265625 -10.890625 C 9.898438 -9.992188 9.535156 -9.097656 9.171875 -8.203125 C 8.816406 -7.316406 8.453125 -6.425781 8.078125 -5.53125 C 7.703125 -4.632812 7.332031 -3.742188 6.96875 -2.859375 C 6.613281 -1.972656 6.253906 -1.097656 5.890625 -0.234375 C 5.710938 0.242188 5.535156 0.726562 5.359375 1.21875 C 5.191406 1.71875 5.039062 2.207031 4.90625 2.6875 C 5.164062 2.445312 5.414062 2.1875 5.65625 1.90625 C 5.894531 1.632812 6.132812 1.359375 6.375 1.078125 C 7.425781 -0.140625 8.441406 -1.40625 9.421875 -2.71875 C 11.378906 -5.351562 13.164062 -8.15625 14.78125 -11.125 C 14.84375 -11.363281 15.019531 -11.445312 15.3125 -11.375 C 15.5 -11.332031 15.703125 -11.222656 15.921875 -11.046875 C 16.140625 -10.878906 16.300781 -10.6875 16.40625 -10.46875 C 16.519531 -10.25 16.535156 -10.050781 16.453125 -9.875 C 16.117188 -8.78125 15.851562 -7.660156 15.65625 -6.515625 C 15.46875 -5.378906 15.296875 -4.234375 15.140625 -3.078125 C 15.078125 -2.523438 15.015625 -1.976562 14.953125 -1.4375 C 14.898438 -0.894531 14.851562 -0.347656 14.8125 0.203125 C 14.789062 0.410156 14.789062 0.601562 14.8125 0.78125 C 14.8125 0.820312 14.8125 0.859375 14.8125 0.890625 C 14.8125 0.859375 14.820312 0.84375 14.84375 0.84375 C 15.082031 0.65625 15.328125 0.484375 15.578125 0.328125 C 15.828125 0.171875 16.0625 -0.0234375 16.28125 -0.265625 C 17.394531 -1.347656 18.351562 -2.59375 19.15625 -4 C 19.96875 -5.40625 20.617188 -6.890625 21.109375 -8.453125 C 21.597656 -10.015625 21.929688 -11.554688 22.109375 -13.078125 Z M 22.109375 -13.078125 "/></g></g></g><g fill="#191919" fill-opacity="1"><g transform="translate(119.071014, 31.434491)"><g><path d="M 6.1875 -4.0625 C 6.375 -4.226562 6.59375 -4.257812 6.84375 -4.15625 C 7.101562 -4.0625 7.285156 -3.898438 7.390625 -3.671875 C 7.492188 -3.441406 7.453125 -3.242188 7.265625 -3.078125 C 6.734375 -2.640625 6.191406 -2.207031 5.640625 -1.78125 C 5.085938 -1.351562 4.523438 -0.945312 3.953125 -0.5625 C 3.472656 -0.25 2.972656 0.0664062 2.453125 0.390625 C 1.929688 0.722656 1.394531 0.953125 0.84375 1.078125 C 0.414062 1.140625 0.0078125 1.070312 -0.375 0.875 C -0.757812 0.6875 -1.070312 0.410156 -1.3125 0.046875 C -1.550781 -0.304688 -1.671875 -0.703125 -1.671875 -1.140625 C -1.691406 -1.859375 -1.492188 -2.601562 -1.078125 -3.375 C -0.660156 -4.15625 -0.28125 -4.851562 0.0625 -5.46875 C 0.195312 -5.65625 0.375 -5.726562 0.59375 -5.6875 C 0.8125 -5.644531 1.023438 -5.535156 1.234375 -5.359375 C 1.453125 -5.191406 1.613281 -5 1.71875 -4.78125 C 1.832031 -4.5625 1.847656 -4.375 1.765625 -4.21875 C 1.484375 -3.738281 1.222656 -3.253906 0.984375 -2.765625 C 0.742188 -2.273438 0.523438 -1.78125 0.328125 -1.28125 C 0.285156 -1.144531 0.226562 -1 0.15625 -0.84375 C 0.613281 -0.914062 1.210938 -1.125 1.953125 -1.46875 C 2.703125 -1.820312 3.460938 -2.234375 4.234375 -2.703125 C 5.003906 -3.171875 5.65625 -3.625 6.1875 -4.0625 Z M 3.234375 -7.453125 C 3.109375 -7.191406 2.882812 -7.125 2.5625 -7.25 C 2.25 -7.382812 1.972656 -7.597656 1.734375 -7.890625 C 1.492188 -8.191406 1.425781 -8.460938 1.53125 -8.703125 C 1.726562 -9.085938 1.867188 -9.375 1.953125 -9.5625 C 2.046875 -9.75 2.09375 -9.84375 2.09375 -9.84375 C 2.226562 -10.039062 2.398438 -10.125 2.609375 -10.09375 C 2.828125 -10.0625 3.039062 -9.957031 3.25 -9.78125 C 3.457031 -9.601562 3.617188 -9.40625 3.734375 -9.1875 C 3.859375 -8.96875 3.878906 -8.769531 3.796875 -8.59375 C 3.796875 -8.59375 3.757812 -8.519531 3.6875 -8.375 C 3.625 -8.238281 3.472656 -7.929688 3.234375 -7.453125 Z M 3.234375 -7.453125 "/></g></g></g><g fill="#191919" fill-opacity="1"><g transform="translate(125.482296, 31.434491)"><g><path d="M 13.078125 -4.21875 C 13.316406 -4.320312 13.535156 -4.296875 13.734375 -4.140625 C 13.929688 -3.992188 14.046875 -3.804688 14.078125 -3.578125 C 14.109375 -3.347656 13.984375 -3.171875 13.703125 -3.046875 C 12.867188 -2.628906 12.050781 -2.1875 11.25 -1.71875 C 10.445312 -1.25 9.640625 -0.765625 8.828125 -0.265625 C 8.347656 0.046875 7.832031 0.378906 7.28125 0.734375 C 6.738281 1.097656 6.175781 1.351562 5.59375 1.5 C 5.019531 1.632812 4.519531 1.484375 4.09375 1.046875 C 3.675781 0.609375 3.507812 0.109375 3.59375 -0.453125 C 3.632812 -0.785156 3.710938 -1.109375 3.828125 -1.421875 C 3.953125 -1.734375 4.09375 -2.054688 4.25 -2.390625 C 2.375 -1.335938 0.738281 0.015625 -0.65625 1.671875 C -0.832031 1.890625 -1.054688 1.914062 -1.328125 1.75 C -1.597656 1.582031 -1.832031 1.347656 -2.03125 1.046875 C -2.226562 0.742188 -2.300781 0.492188 -2.25 0.296875 C -2.03125 -0.535156 -1.734375 -1.347656 -1.359375 -2.140625 C -0.992188 -2.929688 -0.59375 -3.710938 -0.15625 -4.484375 C -0.0507812 -4.679688 0.109375 -4.757812 0.328125 -4.71875 C 0.546875 -4.6875 0.765625 -4.582031 0.984375 -4.40625 C 1.203125 -4.238281 1.363281 -4.039062 1.46875 -3.8125 C 1.582031 -3.582031 1.59375 -3.390625 1.5 -3.234375 C 1.5 -3.210938 1.492188 -3.191406 1.484375 -3.171875 C 1.472656 -3.148438 1.457031 -3.128906 1.4375 -3.109375 C 2.914062 -4.128906 4.519531 -4.898438 6.25 -5.421875 C 6.488281 -5.515625 6.738281 -5.46875 7 -5.28125 C 7.257812 -5.09375 7.457031 -4.863281 7.59375 -4.59375 C 7.738281 -4.320312 7.75 -4.066406 7.625 -3.828125 C 7.332031 -3.367188 7.0625 -2.90625 6.8125 -2.4375 C 6.5625 -1.96875 6.316406 -1.492188 6.078125 -1.015625 C 7.210938 -1.578125 8.378906 -2.117188 9.578125 -2.640625 C 10.773438 -3.171875 11.941406 -3.695312 13.078125 -4.21875 Z M 13.078125 -4.21875 "/></g></g></g><g fill="#191919" fill-opacity="1"><g transform="translate(138.672341, 31.434491)"><g/></g></g></g></g></g><g clip-path="url(#c2d3a8d2b9)"><g clip-path="url(#684a407f66)"><g transform="matrix(1, 0, 0, 1, 36, 37)"><g clip-path="url(#c6d69ab49e)"><g clip-path="url(#1c1f88a42a)"><g clip-path="url(#0534ad9404)"><path fill="#000000" d="M 0.269531 0.511719 L 69.980469 0.511719 L 69.980469 70.222656 L 0.269531 70.222656 Z M 0.269531 0.511719 " fill-opacity="1" fill-rule="nonzero"/></g></g></g></g></g></g><g clip-path="url(#42bfd9a699)"><path fill="#ecd11e" d="M 89.261719 55.355469 C 84.371094 54.195312 79.320312 56.859375 77.1875 61.320312 C 75.085938 65.730469 76.460938 71.3125 80.328125 74.273438 C 80.8125 74.644531 81.320312 74.96875 81.859375 75.253906 C 82.398438 75.535156 82.957031 75.773438 83.535156 75.960938 C 84.113281 76.152344 84.703125 76.292969 85.304688 76.382812 C 85.90625 76.472656 86.511719 76.511719 87.121094 76.503906 C 87.730469 76.492188 88.332031 76.429688 88.929688 76.316406 C 89.53125 76.203125 90.113281 76.042969 90.683594 75.832031 C 91.257812 75.621094 91.804688 75.363281 92.332031 75.0625 C 92.859375 74.757812 93.359375 74.414062 93.828125 74.027344 C 96.277344 72.035156 97.597656 68.945312 97.648438 65.832031 L 97.648438 65.8125 C 97.640625 65.210938 97.582031 64.609375 97.476562 64.015625 C 97.371094 63.421875 97.214844 62.84375 97.011719 62.273438 C 96.808594 61.707031 96.558594 61.160156 96.265625 60.632812 C 95.96875 60.109375 95.632812 59.609375 95.257812 59.140625 C 94.878906 58.667969 94.464844 58.230469 94.015625 57.832031 C 93.566406 57.429688 93.085938 57.066406 92.578125 56.746094 C 92.066406 56.421875 91.535156 56.144531 90.976562 55.910156 C 90.421875 55.679688 89.847656 55.492188 89.261719 55.355469 Z M 80.652344 73.136719 C 80.746094 73.027344 80.464844 72.839844 80.375 72.761719 C 80.046875 72.449219 79.742188 72.117188 79.457031 71.761719 C 79.179688 71.414062 78.929688 71.050781 78.703125 70.667969 C 78.652344 70.578125 78.191406 69.722656 78.152344 69.765625 C 78.195312 69.714844 78.238281 69.664062 78.28125 69.617188 L 84.050781 62.898438 C 85.851562 60.804688 87.648438 58.710938 89.449219 56.617188 C 90.234375 56.839844 90.980469 57.152344 91.6875 57.554688 C 91.929688 57.691406 93.058594 58.554688 93.203125 58.519531 C 93.207031 58.519531 93.207031 58.523438 93.207031 58.523438 C 93.042969 58.71875 92.878906 58.90625 92.710938 59.097656 C 91.84375 60.109375 90.972656 61.125 90.101562 62.136719 C 87.691406 64.941406 85.285156 67.746094 82.875 70.550781 C 82.183594 71.355469 81.488281 72.160156 80.796875 72.96875 C 80.75 73.023438 80.699219 73.078125 80.652344 73.136719 Z M 87.539062 56.300781 C 84.226562 60.15625 80.914062 64.011719 77.601562 67.867188 C 77.523438 67.507812 77.464844 67.144531 77.429688 66.777344 C 77.390625 66.410156 77.375 66.042969 77.382812 65.675781 C 77.386719 65.308594 77.414062 64.941406 77.460938 64.574219 C 77.511719 64.210938 77.578125 63.847656 77.667969 63.492188 C 77.757812 63.132812 77.871094 62.78125 78 62.4375 C 78.132812 62.09375 78.28125 61.757812 78.449219 61.429688 C 78.621094 61.105469 78.808594 60.789062 79.015625 60.480469 C 79.222656 60.175781 79.445312 59.882812 79.683594 59.605469 C 79.925781 59.324219 80.179688 59.0625 80.449219 58.8125 C 80.722656 58.5625 81.007812 58.328125 81.304688 58.109375 C 81.601562 57.894531 81.910156 57.695312 82.230469 57.515625 C 82.550781 57.332031 82.882812 57.171875 83.222656 57.027344 C 83.5625 56.886719 83.910156 56.761719 84.261719 56.660156 C 84.617188 56.558594 84.976562 56.476562 85.339844 56.414062 C 85.703125 56.351562 86.066406 56.3125 86.4375 56.292969 C 86.804688 56.277344 87.171875 56.277344 87.539062 56.300781 Z M 61.074219 57.371094 C 60.589844 57 60.078125 56.675781 59.539062 56.390625 C 59.003906 56.105469 58.445312 55.871094 57.867188 55.679688 C 57.289062 55.492188 56.699219 55.351562 56.09375 55.261719 C 55.492188 55.171875 54.890625 55.128906 54.28125 55.140625 C 53.671875 55.152344 53.070312 55.214844 52.46875 55.328125 C 51.871094 55.441406 51.289062 55.601562 50.71875 55.8125 C 50.148438 56.023438 49.597656 56.28125 49.070312 56.585938 C 48.542969 56.886719 48.042969 57.234375 47.574219 57.621094 C 45.125 59.609375 43.804688 62.695312 43.753906 65.8125 L 43.753906 65.832031 C 43.761719 66.433594 43.820312 67.03125 43.925781 67.625 C 44.03125 68.21875 44.1875 68.800781 44.390625 69.367188 C 44.59375 69.9375 44.84375 70.484375 45.136719 71.007812 C 45.433594 71.535156 45.765625 72.035156 46.144531 72.503906 C 46.523438 72.976562 46.933594 73.410156 47.386719 73.8125 C 47.835938 74.214844 48.316406 74.578125 48.824219 74.898438 C 49.335938 75.21875 49.867188 75.5 50.425781 75.730469 C 50.980469 75.964844 51.550781 76.148438 52.140625 76.289062 C 57.03125 77.449219 62.085938 74.785156 64.214844 70.320312 C 66.316406 65.914062 64.945312 60.332031 61.074219 57.371094 Z M 48.175781 73.027344 C 48.164062 73.039062 48.152344 73.058594 48.140625 73.070312 C 48.136719 73.070312 48.136719 73.070312 48.136719 73.070312 C 48.21875 72.929688 47.691406 72.523438 47.585938 72.417969 C 47.007812 71.8125 46.515625 71.144531 46.113281 70.414062 C 46.070312 70.339844 45.714844 69.617188 45.667969 69.671875 C 45.683594 69.648438 45.703125 69.628906 45.71875 69.609375 C 45.941406 69.351562 46.160156 69.09375 46.382812 68.835938 C 48.617188 66.238281 50.847656 63.640625 53.078125 61.042969 C 54.128906 59.820312 55.179688 58.597656 56.226562 57.375 C 56.457031 57.109375 56.683594 56.84375 56.914062 56.582031 C 56.988281 56.492188 58.128906 57.003906 58.289062 57.074219 C 59.144531 57.445312 59.921875 57.933594 60.632812 58.535156 C 56.847656 62.933594 53.066406 67.335938 49.28125 71.738281 C 48.984375 72.085938 48.6875 72.433594 48.386719 72.78125 C 48.316406 72.863281 48.246094 72.945312 48.175781 73.027344 Z M 47.410156 59.410156 C 48.375 58.351562 49.519531 57.550781 50.84375 57.007812 C 52.167969 56.460938 53.546875 56.222656 54.976562 56.296875 C 51.695312 60.117188 48.414062 63.933594 45.132812 67.753906 C 44.988281 67.015625 44.925781 66.273438 44.953125 65.523438 C 44.976562 64.773438 45.089844 64.035156 45.289062 63.3125 C 45.484375 62.589844 45.761719 61.898438 46.121094 61.238281 C 46.480469 60.578125 46.910156 59.96875 47.410156 59.410156 Z M 103.15625 60.324219 C 102.515625 60.117188 101.859375 60.019531 101.1875 60.027344 C 100.761719 60.027344 100.34375 60.066406 99.925781 60.140625 C 99.414062 58.992188 98.765625 57.925781 97.976562 56.949219 C 97.1875 55.972656 96.285156 55.113281 95.269531 54.371094 C 94.253906 53.628906 93.160156 53.03125 91.988281 52.578125 C 90.816406 52.121094 89.605469 51.828125 88.355469 51.691406 C 87.855469 51.632812 87.351562 51.601562 86.847656 51.601562 C 82.027344 51.601562 77.433594 54.21875 74.796875 58.453125 C 73.523438 58.269531 72.246094 58.160156 70.960938 58.117188 C 70.941406 58.117188 70.921875 58.117188 70.902344 58.117188 C 70.875 58.113281 70.84375 58.109375 70.816406 58.109375 C 70.8125 58.109375 70.597656 58.113281 70.597656 58.113281 C 70.570312 58.113281 70.539062 58.117188 70.511719 58.121094 C 70.484375 58.117188 70.453125 58.117188 70.417969 58.117188 L 70.414062 58.117188 C 69.136719 58.160156 67.867188 58.273438 66.605469 58.453125 C 65.960938 57.40625 65.199219 56.457031 64.3125 55.609375 C 63.425781 54.761719 62.449219 54.039062 61.375 53.441406 C 60.304688 52.84375 59.171875 52.390625 57.984375 52.085938 C 56.796875 51.777344 55.589844 51.625 54.363281 51.628906 C 53.929688 51.628906 53.488281 51.648438 53.054688 51.6875 C 48.117188 52.132812 43.609375 55.4375 41.476562 60.140625 C 41.078125 60.070312 40.675781 60.039062 40.269531 60.039062 C 39.703125 60.039062 39.144531 60.09375 38.589844 60.207031 C 36.878906 60.558594 36.269531 62.253906 36.269531 63.726562 L 36.269531 63.878906 C 36.265625 65.058594 36.261719 66.53125 37.542969 67.394531 C 38.386719 67.964844 39.351562 68.039062 40.097656 68.039062 C 40.21875 68.039062 40.339844 68.035156 40.457031 68.03125 C 41.628906 74.890625 47.652344 80.019531 54.617188 80.019531 C 54.796875 80.019531 54.972656 80.015625 55.148438 80.011719 C 62.167969 79.753906 68.035156 73.996094 68.632812 66.839844 C 69.296875 66.695312 69.964844 66.605469 70.640625 66.558594 L 70.699219 66.554688 C 70.699219 66.554688 70.765625 66.558594 70.765625 66.558594 C 71.441406 66.605469 72.105469 66.699219 72.765625 66.839844 C 72.835938 67.695312 72.984375 68.535156 73.207031 69.363281 C 73.429688 70.191406 73.726562 70.996094 74.089844 71.769531 C 74.457031 72.546875 74.886719 73.285156 75.386719 73.984375 C 75.882812 74.683594 76.4375 75.332031 77.054688 75.929688 C 77.667969 76.53125 78.328125 77.070312 79.039062 77.554688 C 79.75 78.035156 80.496094 78.449219 81.28125 78.796875 C 82.0625 79.144531 82.875 79.421875 83.707031 79.625 C 84.539062 79.828125 85.386719 79.957031 86.242188 80.007812 C 86.515625 80.027344 86.789062 80.035156 87.058594 80.035156 C 93.867188 80.035156 99.769531 74.898438 100.945312 68.03125 C 101.058594 68.035156 101.171875 68.035156 101.285156 68.035156 C 101.929688 68.035156 102.773438 67.988281 103.5625 67.59375 C 105.136719 66.804688 105.136719 65.121094 105.136719 63.726562 C 105.136719 61.976562 104.433594 60.765625 103.15625 60.324219 Z M 99.929688 67.234375 C 99.125 74.09375 93.140625 79.136719 86.265625 78.886719 C 79.507812 78.640625 74.140625 72.878906 73.851562 66.246094 C 73.851562 66.070312 73.761719 65.953125 73.59375 65.902344 C 72.671875 65.59375 71.703125 65.519531 70.742188 65.429688 C 70.730469 65.429688 70.71875 65.429688 70.703125 65.429688 L 70.699219 65.429688 C 70.6875 65.429688 70.675781 65.429688 70.660156 65.429688 C 69.699219 65.519531 68.730469 65.59375 67.808594 65.902344 C 67.636719 65.957031 67.550781 66.070312 67.546875 66.246094 C 67.511719 67.054688 67.402344 67.855469 67.222656 68.644531 C 67.039062 69.4375 66.785156 70.203125 66.464844 70.945312 C 66.140625 71.691406 65.75 72.398438 65.296875 73.070312 C 64.84375 73.742188 64.335938 74.367188 63.765625 74.945312 C 63.199219 75.523438 62.582031 76.046875 61.917969 76.511719 C 61.253906 76.976562 60.550781 77.378906 59.816406 77.714844 C 59.078125 78.050781 58.316406 78.320312 57.527344 78.515625 C 56.742188 78.710938 55.945312 78.835938 55.132812 78.886719 C 48.273438 79.304688 42.261719 73.96875 41.472656 67.234375 C 41.472656 67.136719 41.4375 67.054688 41.367188 66.984375 C 41.296875 66.914062 41.214844 66.882812 41.117188 66.878906 C 40.546875 66.90625 39.96875 66.882812 39.394531 66.882812 C 37.644531 66.882812 37.390625 65.285156 37.390625 63.941406 C 37.390625 62.617188 37.808594 61.226562 39.433594 61.226562 C 40.222656 61.226562 41.070312 61.132812 41.832031 61.386719 C 41.925781 61.410156 42.015625 61.398438 42.097656 61.351562 C 42.183594 61.300781 42.238281 61.230469 42.265625 61.136719 C 42.71875 59.992188 43.316406 58.929688 44.066406 57.953125 C 44.8125 56.972656 45.679688 56.113281 46.667969 55.375 C 47.652344 54.636719 48.722656 54.046875 49.871094 53.609375 C 51.023438 53.167969 52.210938 52.890625 53.4375 52.78125 C 58.527344 52.324219 63.382812 55.089844 65.902344 59.460938 C 65.996094 59.609375 66.128906 59.664062 66.300781 59.625 C 67.667969 59.417969 69.042969 59.292969 70.425781 59.242188 C 70.457031 59.242188 70.484375 59.234375 70.511719 59.230469 C 70.621094 59.234375 70.726562 59.226562 70.832031 59.207031 C 70.878906 59.226562 70.925781 59.238281 70.976562 59.242188 C 72.359375 59.289062 73.734375 59.417969 75.101562 59.625 C 75.273438 59.664062 75.40625 59.609375 75.5 59.460938 C 76.121094 58.375 76.878906 57.394531 77.773438 56.519531 C 78.667969 55.648438 79.667969 54.917969 80.769531 54.324219 C 81.875 53.734375 83.035156 53.308594 84.257812 53.046875 C 85.484375 52.78125 86.71875 52.695312 87.964844 52.78125 C 92.957031 53.101562 97.316406 56.550781 99.136719 61.136719 C 99.164062 61.230469 99.21875 61.300781 99.304688 61.351562 C 99.386719 61.398438 99.476562 61.410156 99.570312 61.386719 C 100.328125 61.132812 101.179688 61.226562 101.96875 61.226562 C 103.597656 61.226562 104.011719 62.617188 104.011719 63.941406 C 104.011719 65.351562 103.753906 66.765625 102.007812 66.882812 C 101.433594 66.914062 100.859375 66.914062 100.28125 66.878906 C 100.1875 66.882812 100.101562 66.914062 100.035156 66.984375 C 99.964844 67.054688 99.929688 67.136719 99.929688 67.234375 Z M 99.929688 67.234375 " fill-opacity="1" fill-rule="nonzero"/></g><g clip-path="url(#d230e817b1)"><g clip-path="url(#e6b69295c2)"><g transform="matrix(1, 0, 0, 1, 77, 56)"><g clip-path="url(#502b6e126e)"><g clip-path="url(#d04f5890e8)"><g clip-path="url(#a56ea06271)"><path fill="#ecd11e" d="M 0.160156 0.0078125 L 19.78125 0.0078125 L 19.78125 19.628906 L 0.160156 19.628906 Z M 0.160156 0.0078125 " fill-opacity="1" fill-rule="nonzero"/></g></g></g></g></g></g><g clip-path="url(#32e111c1a4)"><g clip-path="url(#97964109fe)"><g transform="matrix(1, 0, 0, 1, 44, 56)"><g clip-path="url(#783359ea54)"><g clip-path="url(#8b2d9517fa)"><g clip-path="url(#0634e4db96)"><path fill="#ecd11e" d="M 0.625 0.0078125 L 20.246094 0.0078125 L 20.246094 19.628906 L 0.625 19.628906 Z M 0.625 0.0078125 " fill-opacity="1" fill-rule="nonzero"/></g></g></g></g></g></g><g clip-path="url(#cb892df2c9)"><path fill="#000000" d="M 46.195312 60.375 C 46.417969 60.164062 46.644531 59.957031 46.863281 59.742188 C 47.695312 58.929688 48.523438 58.109375 49.359375 57.300781 C 49.441406 57.222656 49.578125 57.152344 49.6875 57.152344 C 53.988281 57.144531 58.285156 57.144531 62.582031 57.148438 C 62.632812 57.148438 62.683594 57.152344 62.769531 57.160156 C 62.714844 57.222656 62.683594 57.269531 62.648438 57.304688 C 61.628906 58.308594 60.605469 59.308594 59.582031 60.304688 C 59.503906 60.382812 59.363281 60.441406 59.25 60.441406 C 54.96875 60.449219 50.6875 60.453125 46.40625 60.449219 C 46.347656 60.449219 46.289062 60.441406 46.230469 60.4375 Z M 46.195312 60.375 " fill-opacity="1" fill-rule="nonzero"/></g><g clip-path="url(#2eb4ac33a9)"><path fill="#000000" d="M 62.78125 65.585938 L 62.457031 65.585938 C 58.238281 65.585938 54.015625 65.585938 49.792969 65.589844 C 49.585938 65.589844 49.445312 65.527344 49.296875 65.382812 C 48.339844 64.429688 47.371094 63.484375 46.40625 62.539062 C 46.339844 62.472656 46.277344 62.40625 46.175781 62.300781 C 46.3125 62.292969 46.398438 62.285156 46.488281 62.285156 C 50.71875 62.285156 54.949219 62.285156 59.179688 62.28125 C 59.378906 62.28125 59.515625 62.34375 59.652344 62.480469 C 60.675781 63.503906 61.707031 64.519531 62.78125 65.585938 Z M 62.78125 65.585938 " fill-opacity="1" fill-rule="nonzero"/></g><g clip-path="url(#46733c2d76)"><path fill="#000000" d="M 62.769531 67.449219 C 62.695312 67.535156 62.648438 67.589844 62.59375 67.644531 C 61.597656 68.621094 60.605469 69.601562 59.601562 70.570312 C 59.515625 70.652344 59.367188 70.71875 59.246094 70.71875 C 54.964844 70.726562 50.683594 70.726562 46.402344 70.726562 C 46.34375 70.726562 46.285156 70.71875 46.1875 70.714844 C 46.257812 70.636719 46.300781 70.578125 46.351562 70.53125 C 47.351562 69.546875 48.351562 68.5625 49.359375 67.585938 C 49.449219 67.5 49.597656 67.4375 49.71875 67.433594 C 53.980469 67.429688 58.246094 67.425781 62.507812 67.429688 C 62.582031 67.429688 62.65625 67.441406 62.769531 67.449219 Z M 62.769531 67.449219 " fill-opacity="1" fill-rule="nonzero"/></g><g clip-path="url(#356c31bed8)"><path fill="#000000" d="M 78.847656 60.375 C 79.070312 60.164062 79.296875 59.957031 79.515625 59.742188 C 80.347656 58.929688 81.175781 58.109375 82.015625 57.300781 C 82.097656 57.222656 82.230469 57.152344 82.34375 57.152344 C 86.640625 57.144531 90.941406 57.144531 95.238281 57.148438 C 95.289062 57.148438 95.335938 57.152344 95.425781 57.160156 C 95.371094 57.222656 95.339844 57.269531 95.300781 57.304688 C 94.28125 58.308594 93.261719 59.308594 92.238281 60.304688 C 92.15625 60.382812 92.015625 60.441406 91.902344 60.441406 C 87.621094 60.449219 83.339844 60.453125 79.058594 60.449219 C 79 60.449219 78.941406 60.441406 78.886719 60.4375 Z M 78.847656 60.375 " fill-opacity="1" fill-rule="nonzero"/></g><g clip-path="url(#914cca86b3)"><path fill="#000000" d="M 95.433594 65.585938 L 95.113281 65.585938 C 90.890625 65.585938 86.667969 65.585938 82.449219 65.589844 C 82.238281 65.589844 82.097656 65.527344 81.953125 65.382812 C 80.992188 64.429688 80.023438 63.484375 79.058594 62.539062 C 78.992188 62.472656 78.933594 62.40625 78.832031 62.300781 C 78.964844 62.292969 79.054688 62.285156 79.144531 62.285156 C 83.375 62.285156 87.605469 62.285156 91.835938 62.28125 C 92.035156 62.28125 92.167969 62.34375 92.308594 62.480469 C 93.328125 63.503906 94.359375 64.519531 95.433594 65.585938 Z M 95.433594 65.585938 " fill-opacity="1" fill-rule="nonzero"/></g><g clip-path="url(#2a0ec6642e)"><path fill="#000000" d="M 95.425781 67.449219 C 95.347656 67.535156 95.300781 67.589844 95.25 67.644531 C 94.253906 68.621094 93.257812 69.601562 92.253906 70.570312 C 92.167969 70.652344 92.019531 70.71875 91.902344 70.71875 C 87.621094 70.726562 83.339844 70.726562 79.058594 70.726562 C 79 70.726562 78.941406 70.71875 78.84375 70.714844 C 78.910156 70.636719 78.953125 70.578125 79.003906 70.53125 C 80.007812 69.546875 81.007812 68.5625 82.015625 67.585938 C 82.101562 67.5 82.25 67.4375 82.371094 67.433594 C 86.636719 67.429688 90.898438 67.425781 95.164062 67.429688 C 95.238281 67.429688 95.308594 67.441406 95.425781 67.449219 Z M 95.425781 67.449219 " fill-opacity="1" fill-rule="nonzero"/></g><g clip-path="url(#7499e107bd)"><path fill="#000000" d="M 71.058594 85.65625 C 61.882812 85.65625 53.730469 83.917969 48.570312 81.226562 C 48.554688 81.394531 48.546875 81.558594 48.546875 81.726562 C 48.546875 87.929688 58.625 96.246094 71.058594 96.246094 C 83.488281 96.246094 93.566406 87.929688 93.566406 81.726562 C 93.566406 81.558594 93.558594 81.394531 93.542969 81.226562 C 88.382812 83.917969 80.230469 85.65625 71.058594 85.65625 Z M 71.058594 85.65625 " fill-opacity="1" fill-rule="nonzero"/></g><path fill="#ffffff" d="M 71.058594 92.21875 C 68.285156 92.21875 65.535156 91.78125 62.878906 90.914062 C 60.496094 90.140625 58.214844 89.011719 56.28125 87.660156 C 55.363281 87.011719 54.578125 86.363281 53.921875 85.726562 C 58.867188 87.160156 64.808594 87.945312 71.058594 87.945312 C 77.304688 87.945312 83.246094 87.160156 88.191406 85.726562 C 87.535156 86.363281 86.753906 87.011719 85.832031 87.660156 C 83.898438 89.011719 81.617188 90.140625 79.234375 90.914062 C 76.578125 91.78125 73.828125 92.21875 71.058594 92.21875 Z M 71.058594 92.21875 " fill-opacity="1" fill-rule="nonzero"/><g clip-path="url(#b44bac8d6e)"><path fill="#000000" d="M 94.097656 81.304688 C 94.640625 81.84375 95.0625 82.496094 95.351562 83.246094 C 95.609375 83.921875 95.753906 84.667969 95.765625 85.40625 C 95.773438 85.761719 95.75 86.085938 95.707031 86.386719 C 95.125 85.039062 94.167969 83.667969 92.941406 82.449219 C 91.710938 81.230469 90.332031 80.285156 88.972656 79.703125 C 89.273438 79.664062 89.601562 79.640625 89.960938 79.648438 C 90.707031 79.660156 91.457031 79.800781 92.136719 80.058594 C 92.894531 80.34375 93.550781 80.761719 94.097656 81.304688 Z M 94.097656 81.304688 " fill-opacity="1" fill-rule="nonzero"/></g><g clip-path="url(#5c01c80e3d)"><path fill="#000000" d="M 48.015625 81.304688 C 47.472656 81.84375 47.050781 82.496094 46.761719 83.246094 C 46.503906 83.921875 46.359375 84.667969 46.347656 85.40625 C 46.339844 85.761719 46.363281 86.085938 46.40625 86.386719 C 46.988281 85.039062 47.945312 83.667969 49.171875 82.449219 C 50.402344 81.230469 51.78125 80.285156 53.140625 79.703125 C 52.839844 79.664062 52.511719 79.640625 52.15625 79.648438 C 51.410156 79.660156 50.65625 79.800781 49.976562 80.058594 C 49.222656 80.34375 48.5625 80.761719 48.015625 81.304688 Z M 48.015625 81.304688 " fill-opacity="1" fill-rule="nonzero"/></g></g></g></g></svg>