<svg xmlns="http://www.w3.org/2000/svg" xmlns:xlink="http://www.w3.org/1999/xlink" width="512" zoomAndPan="magnify" viewBox="0 0 384 383.999986" height="512" preserveAspectRatio="xMidYMid meet" version="1.0"><defs><clipPath id="bd29a1b87b"><path d="M 99.53125 99.53125 L 284.46875 99.53125 L 284.46875 284.46875 L 99.53125 284.46875 Z M 99.53125 99.53125 " clip-rule="nonzero"/></clipPath><clipPath id="9364689725"><path d="M 192 99.53125 C 140.929688 99.53125 99.53125 140.929688 99.53125 192 C 99.53125 243.070312 140.929688 284.46875 192 284.46875 C 243.070312 284.46875 284.46875 243.070312 284.46875 192 C 284.46875 140.929688 243.070312 99.53125 192 99.53125 Z M 192 99.53125 " clip-rule="nonzero"/></clipPath><clipPath id="756829a8bc"><path d="M 0.53125 0.53125 L 185.46875 0.53125 L 185.46875 185.46875 L 0.53125 185.46875 Z M 0.53125 0.53125 " clip-rule="nonzero"/></clipPath><clipPath id="690426286f"><path d="M 93 0.53125 C 41.929688 0.53125 0.53125 41.929688 0.53125 93 C 0.53125 144.070312 41.929688 185.46875 93 185.46875 C 144.070312 185.46875 185.46875 144.070312 185.46875 93 C 185.46875 41.929688 144.070312 0.53125 93 0.53125 Z M 93 0.53125 " clip-rule="nonzero"/></clipPath><clipPath id="1840e28bf8"><rect x="0" width="186" y="0" height="186"/></clipPath><clipPath id="9282119cb1"><path d="M 99.53125 136.902344 L 282.53125 136.902344 L 282.53125 212.652344 L 99.53125 212.652344 Z M 99.53125 136.902344 " clip-rule="nonzero"/></clipPath><clipPath id="d290898136"><path d="M 208.011719 148.601562 L 260.066406 148.601562 L 260.066406 200.65625 L 208.011719 200.65625 Z M 208.011719 148.601562 " clip-rule="nonzero"/></clipPath><clipPath id="592eea934d"><path d="M 234.039062 148.601562 C 219.667969 148.601562 208.011719 160.253906 208.011719 174.628906 C 208.011719 189.003906 219.667969 200.65625 234.039062 200.65625 C 248.414062 200.65625 260.066406 189.003906 260.066406 174.628906 C 260.066406 160.253906 248.414062 148.601562 234.039062 148.601562 Z M 234.039062 148.601562 " clip-rule="nonzero"/></clipPath><clipPath id="7ef12c76da"><path d="M 0.0117188 0.601562 L 52.066406 0.601562 L 52.066406 52.65625 L 0.0117188 52.65625 Z M 0.0117188 0.601562 " clip-rule="nonzero"/></clipPath><clipPath id="a89d3c5218"><path d="M 26.039062 0.601562 C 11.667969 0.601562 0.0117188 12.253906 0.0117188 26.628906 C 0.0117188 41.003906 11.667969 52.65625 26.039062 52.65625 C 40.414062 52.65625 52.066406 41.003906 52.066406 26.628906 C 52.066406 12.253906 40.414062 0.601562 26.039062 0.601562 Z M 26.039062 0.601562 " clip-rule="nonzero"/></clipPath><clipPath id="f448dafd0b"><rect x="0" width="53" y="0" height="53"/></clipPath><clipPath id="444498a9eb"><path d="M 121.699219 148.601562 L 173.753906 148.601562 L 173.753906 200.65625 L 121.699219 200.65625 Z M 121.699219 148.601562 " clip-rule="nonzero"/></clipPath><clipPath id="d4793045e9"><path d="M 147.726562 148.601562 C 133.351562 148.601562 121.699219 160.253906 121.699219 174.628906 C 121.699219 189.003906 133.351562 200.65625 147.726562 200.65625 C 162.101562 200.65625 173.753906 189.003906 173.753906 174.628906 C 173.753906 160.253906 162.101562 148.601562 147.726562 148.601562 Z M 147.726562 148.601562 " clip-rule="nonzero"/></clipPath><clipPath id="e23fb1d326"><path d="M 0.699219 0.601562 L 52.753906 0.601562 L 52.753906 52.65625 L 0.699219 52.65625 Z M 0.699219 0.601562 " clip-rule="nonzero"/></clipPath><clipPath id="6a01e60706"><path d="M 26.726562 0.601562 C 12.351562 0.601562 0.699219 12.253906 0.699219 26.628906 C 0.699219 41.003906 12.351562 52.65625 26.726562 52.65625 C 41.101562 52.65625 52.753906 41.003906 52.753906 26.628906 C 52.753906 12.253906 41.101562 0.601562 26.726562 0.601562 Z M 26.726562 0.601562 " clip-rule="nonzero"/></clipPath><clipPath id="76c69725ad"><rect x="0" width="53" y="0" height="53"/></clipPath><clipPath id="0cf15f7e65"><path d="M 125.816406 156.417969 L 169.316406 156.417969 L 169.316406 166 L 125.816406 166 Z M 125.816406 156.417969 " clip-rule="nonzero"/></clipPath><clipPath id="ca7df2a909"><path d="M 125.816406 170 L 169.316406 170 L 169.316406 180 L 125.816406 180 Z M 125.816406 170 " clip-rule="nonzero"/></clipPath><clipPath id="c9ba464d45"><path d="M 125.816406 184 L 169.316406 184 L 169.316406 193.167969 L 125.816406 193.167969 Z M 125.816406 184 " clip-rule="nonzero"/></clipPath><clipPath id="0e49305f1c"><path d="M 212.128906 156.417969 L 255.628906 156.417969 L 255.628906 166 L 212.128906 166 Z M 212.128906 156.417969 " clip-rule="nonzero"/></clipPath><clipPath id="a6485bbc82"><path d="M 212.128906 170 L 255.628906 170 L 255.628906 180 L 212.128906 180 Z M 212.128906 170 " clip-rule="nonzero"/></clipPath><clipPath id="771d767e80"><path d="M 212.128906 184 L 255.628906 184 L 255.628906 193.167969 L 212.128906 193.167969 Z M 212.128906 184 " clip-rule="nonzero"/></clipPath></defs><path fill="#ffffff" d="M 316.800781 430.050781 L 67.191406 430.050781 C 1.21875 430.050781 -52.71875 376.109375 -52.71875 310.136719 L -52.71875 60.527344 C -52.71875 -5.445312 1.21875 -59.382812 67.191406 -59.382812 L 316.90625 -59.382812 C 382.773438 -59.382812 436.714844 -5.445312 436.714844 60.527344 L 436.714844 310.238281 C 436.714844 376.109375 382.773438 430.050781 316.800781 430.050781 Z M 316.800781 430.050781 " fill-opacity="1" fill-rule="nonzero"/><path fill="#000000" d="M 191.996094 278.9375 C 238.59375 278.9375 276.527344 241.003906 276.527344 194.40625 C 276.527344 188.492188 275.914062 182.679688 274.792969 177.175781 C 274.589844 177.992188 274.386719 178.910156 274.28125 180.03125 C 272.550781 194.203125 262.863281 211.640625 246.140625 216.125 C 243.386719 216.839844 240.632812 217.246094 237.882812 217.246094 C 230.742188 217.246094 224.015625 214.699219 217.894531 209.703125 C 208.003906 201.542969 200.867188 186.964844 199.542969 172.996094 C 197.808594 173.707031 196.074219 174.523438 194.546875 175.238281 C 194.445312 175.339844 194.242188 175.339844 194.035156 175.441406 C 193.933594 175.441406 193.933594 175.542969 193.832031 175.542969 C 193.730469 175.542969 193.628906 175.644531 193.527344 175.644531 C 193.425781 175.644531 193.324219 175.746094 193.21875 175.746094 C 193.015625 175.746094 192.914062 175.847656 192.710938 175.847656 C 192.609375 175.847656 192.507812 175.847656 192.40625 175.847656 C 192.199219 175.847656 191.996094 175.847656 191.792969 175.847656 C 191.691406 175.847656 191.589844 175.847656 191.488281 175.847656 C 191.285156 175.847656 191.078125 175.847656 190.976562 175.746094 C 190.875 175.746094 190.773438 175.644531 190.671875 175.644531 C 190.570312 175.644531 190.46875 175.542969 190.367188 175.542969 C 190.261719 175.542969 190.261719 175.441406 190.160156 175.441406 C 190.058594 175.339844 189.957031 175.339844 189.855469 175.238281 C 189.855469 175.238281 189.753906 175.238281 189.753906 175.136719 C 188.222656 174.421875 186.59375 173.605469 184.757812 172.890625 C 183.328125 186.863281 176.292969 201.441406 166.402344 209.601562 C 160.386719 214.597656 153.554688 217.144531 146.417969 217.144531 C 143.664062 217.144531 141.015625 216.738281 138.160156 216.023438 C 121.335938 211.539062 111.75 194.203125 110.015625 179.929688 C 109.914062 178.910156 109.710938 177.886719 109.507812 177.074219 C 108.386719 182.679688 107.773438 188.390625 107.773438 194.304688 C 107.46875 241.105469 145.398438 278.9375 191.996094 278.9375 Z M 163.140625 223.261719 C 165.484375 221.429688 168.851562 221.9375 170.585938 224.179688 C 172.214844 226.21875 174.96875 229.074219 179.148438 230.910156 C 183.738281 232.949219 188.121094 232.949219 190.976562 232.644531 C 191.078125 232.644531 191.179688 232.644531 191.285156 232.644531 C 191.386719 232.644531 191.488281 232.644531 191.589844 232.644531 C 191.792969 232.644531 192.097656 232.644531 192.304688 232.644531 C 192.40625 232.644531 192.507812 232.644531 192.609375 232.644531 C 192.710938 232.644531 192.8125 232.644531 192.914062 232.644531 C 195.769531 232.949219 200.050781 232.949219 204.742188 230.910156 C 209.023438 229.074219 211.777344 226.21875 213.308594 224.179688 C 215.144531 221.835938 218.507812 221.429688 220.75 223.261719 C 223.097656 225.097656 223.503906 228.464844 221.769531 230.707031 C 218.40625 235.089844 214.023438 238.558594 209.023438 240.699219 C 204.132812 242.839844 199.542969 243.554688 195.667969 243.554688 C 194.242188 243.554688 193.015625 243.453125 191.894531 243.351562 C 190.773438 243.453125 189.550781 243.554688 188.121094 243.554688 C 184.351562 243.554688 179.660156 242.941406 174.765625 240.699219 C 168.441406 237.945312 164.363281 233.765625 162.019531 230.707031 C 160.386719 228.363281 160.796875 224.996094 163.140625 223.261719 Z M 163.140625 223.261719 " fill-opacity="1" fill-rule="nonzero"/><path fill="#000000" d="M 209.839844 169.019531 C 210.148438 181.050781 216.164062 194.40625 224.625 201.339844 C 230.335938 206.03125 236.554688 207.457031 243.285156 205.726562 C 254.808594 202.667969 262.25 189.820312 263.578125 178.703125 C 264.085938 174.421875 265.410156 171.160156 267.042969 168.507812 C 260.824219 166.671875 254.398438 165.449219 247.976562 164.835938 C 233.394531 163.613281 220.445312 165.753906 209.839844 169.019531 Z M 209.839844 169.019531 " fill-opacity="1" fill-rule="nonzero"/><path fill="#000000" d="M 180.882812 160.042969 C 181.085938 160.148438 181.1875 160.148438 181.394531 160.25 C 185.265625 161.574219 188.835938 163.105469 191.996094 164.53125 C 195.15625 163.105469 198.726562 161.574219 202.601562 160.25 C 202.804688 160.148438 202.90625 160.148438 203.109375 160.042969 C 215.347656 155.761719 231.050781 152.703125 248.792969 154.234375 C 255.316406 154.84375 261.742188 155.964844 268.0625 157.699219 C 254.398438 129.457031 225.441406 109.980469 191.996094 109.980469 C 158.550781 109.980469 129.59375 129.457031 115.929688 157.699219 C 122.253906 155.964844 128.675781 154.742188 135.203125 154.234375 C 153.046875 152.703125 168.648438 155.761719 180.882812 160.042969 Z M 180.882812 160.042969 " fill-opacity="1" fill-rule="nonzero"/><path fill="#000000" d="M 136.121094 164.835938 C 129.695312 165.449219 123.273438 166.671875 117.050781 168.507812 C 118.683594 171.058594 119.90625 174.421875 120.519531 178.703125 C 121.945312 189.820312 129.390625 202.667969 140.808594 205.726562 C 147.539062 207.558594 153.761719 206.03125 159.46875 201.339844 C 167.933594 194.40625 173.847656 180.949219 174.253906 169.019531 C 163.546875 165.753906 150.597656 163.613281 136.121094 164.835938 Z M 154.472656 170.34375 C 156.613281 172.382812 156.71875 175.746094 154.78125 177.886719 L 142.035156 191.652344 C 141.015625 192.777344 139.585938 193.386719 138.160156 193.386719 C 136.832031 193.386719 135.507812 192.878906 134.488281 191.960938 C 132.347656 189.921875 132.246094 186.554688 134.183594 184.414062 L 146.929688 170.648438 C 148.96875 168.40625 152.332031 168.304688 154.472656 170.34375 Z M 154.472656 170.34375 " fill-opacity="1" fill-rule="nonzero"/><path fill="#000000" d="M 328.425781 289.644531 C 328.324219 289.644531 328.222656 289.644531 328.121094 289.644531 L 269.285156 289.644531 C 269.183594 289.644531 269.082031 289.644531 268.980469 289.644531 C 268.878906 289.644531 268.777344 289.644531 268.675781 289.644531 L 115.421875 289.644531 C 115.320312 289.644531 115.21875 289.644531 115.117188 289.644531 C 115.011719 289.644531 114.910156 289.644531 114.808594 289.644531 L 55.976562 289.644531 C 55.875 289.644531 55.769531 289.644531 55.667969 289.644531 C 55.566406 289.644531 55.464844 289.644531 55.363281 289.644531 L 36.296875 289.644531 L 36.296875 356.941406 L 362.175781 356.941406 L 362.175781 289.644531 L 328.9375 289.644531 C 328.734375 289.644531 328.527344 289.644531 328.425781 289.644531 Z M 307.933594 335.628906 L 288.457031 335.628906 C 281.421875 335.628906 274.488281 338.789062 269.390625 344.296875 C 263.167969 350.921875 254.605469 354.695312 245.9375 354.695312 C 245.019531 354.695312 244 354.695312 243.082031 354.59375 C 235.636719 353.878906 228.601562 350.3125 223.300781 344.703125 C 218.40625 339.503906 211.980469 336.445312 205.152344 336.140625 L 192.199219 335.628906 L 179.25 336.140625 C 172.417969 336.445312 165.996094 339.503906 161.101562 344.703125 C 155.800781 350.3125 148.765625 353.878906 141.320312 354.59375 C 140.402344 354.695312 139.382812 354.695312 138.464844 354.695312 C 129.796875 354.695312 121.234375 350.921875 115.011719 344.296875 C 109.914062 338.789062 102.980469 335.628906 95.945312 335.628906 L 76.46875 335.628906 C 73.511719 335.628906 71.167969 333.285156 71.167969 330.328125 C 71.167969 327.371094 73.511719 325.023438 76.46875 325.023438 L 95.945312 325.023438 C 105.9375 325.023438 115.726562 329.410156 122.863281 337.054688 C 127.453125 342.054688 133.980469 344.601562 140.300781 343.988281 C 145.195312 343.480469 149.785156 341.136719 153.351562 337.464844 C 160.183594 330.226562 169.257812 326.042969 178.84375 325.636719 L 191.792969 325.125 L 192.097656 325.125 C 192.40625 325.125 192.609375 325.125 192.914062 325.125 L 205.761719 325.636719 C 215.449219 326.042969 224.421875 330.226562 231.253906 337.464844 C 234.824219 341.238281 239.410156 343.582031 244.304688 343.988281 C 250.628906 344.601562 257.152344 342.054688 261.742188 337.054688 C 268.878906 329.410156 278.667969 325.023438 288.660156 325.023438 L 308.136719 325.023438 C 311.09375 325.023438 313.4375 327.371094 313.4375 330.328125 C 313.234375 333.285156 310.890625 335.628906 307.933594 335.628906 Z M 340.253906 308.199219 C 340.253906 311.15625 337.910156 313.503906 334.953125 313.503906 L 291.617188 313.503906 C 287.128906 313.503906 282.847656 314.929688 279.28125 317.582031 C 273.058594 322.167969 263.269531 327.371094 250.730469 327.371094 C 249.609375 327.371094 248.382812 327.371094 247.261719 327.269531 C 236.148438 326.453125 227.683594 321.660156 222.585938 317.886719 C 218.8125 315.03125 214.429688 313.503906 209.839844 313.503906 L 174.253906 313.503906 C 169.667969 313.503906 165.28125 315.03125 161.507812 317.886719 C 156.410156 321.660156 147.949219 326.453125 136.832031 327.269531 C 135.609375 327.371094 134.488281 327.371094 133.367188 327.371094 C 120.824219 327.371094 111.035156 322.167969 104.816406 317.582031 C 101.246094 314.929688 96.964844 313.503906 92.480469 313.503906 L 49.144531 313.503906 C 46.1875 313.503906 43.839844 311.15625 43.839844 308.199219 C 43.839844 305.242188 46.1875 302.898438 49.144531 302.898438 L 92.480469 302.898438 C 99.207031 302.898438 105.835938 305.039062 111.242188 309.015625 C 116.542969 312.890625 125.210938 317.480469 136.121094 316.664062 C 144.683594 316.050781 151.210938 312.382812 155.1875 309.320312 C 160.898438 305.140625 167.421875 302.898438 174.355469 302.898438 L 209.941406 302.898438 C 216.773438 302.898438 223.402344 305.140625 229.113281 309.320312 C 233.089844 312.277344 239.613281 315.949219 248.179688 316.664062 C 259.191406 317.480469 267.757812 312.992188 273.058594 309.015625 C 278.464844 305.039062 284.988281 302.898438 291.820312 302.898438 L 335.15625 302.898438 C 337.910156 302.796875 340.253906 305.242188 340.253906 308.199219 Z M 340.253906 308.199219 " fill-opacity="1" fill-rule="nonzero"/><path fill="#000000" d="M 44.859375 117.628906 L 82.589844 136.796875 C 83.402344 137.203125 84.21875 137.410156 85.035156 137.410156 C 86.972656 137.410156 88.808594 136.390625 89.828125 134.453125 C 91.152344 131.800781 90.132812 128.640625 87.484375 127.3125 L 49.753906 108.144531 C 47.105469 106.820312 43.945312 107.839844 42.617188 110.488281 C 41.089844 113.140625 42.210938 116.300781 44.859375 117.628906 Z M 44.859375 117.628906 " fill-opacity="1" fill-rule="nonzero"/><path fill="#000000" d="M 32.625 141.792969 L 69.84375 159.839844 C 70.554688 160.25 71.371094 160.351562 72.1875 160.351562 C 74.125 160.351562 76.0625 159.230469 76.980469 157.292969 C 78.304688 154.640625 77.183594 151.480469 74.53125 150.152344 L 37.316406 132.105469 C 34.664062 130.78125 31.503906 131.902344 30.179688 134.554688 C 28.851562 137.304688 29.972656 140.46875 32.625 141.792969 Z M 32.625 141.792969 " fill-opacity="1" fill-rule="nonzero"/><path fill="#000000" d="M 99.71875 116.8125 C 100.738281 117.730469 102.0625 118.238281 103.390625 118.238281 C 104.816406 118.238281 106.246094 117.628906 107.265625 116.503906 C 109.304688 114.363281 109.203125 111 106.957031 108.960938 L 76.675781 80.613281 C 74.53125 78.574219 71.167969 78.675781 69.128906 80.917969 C 67.089844 83.164062 67.191406 86.425781 69.433594 88.464844 Z M 99.71875 116.8125 " fill-opacity="1" fill-rule="nonzero"/><path fill="#000000" d="M 146.011719 89.382812 C 146.929688 91.320312 148.867188 92.441406 150.90625 92.441406 C 151.617188 92.441406 152.433594 92.238281 153.148438 91.933594 C 155.800781 90.707031 157.023438 87.546875 155.800781 84.792969 L 139.789062 50.125 C 138.566406 47.476562 135.40625 46.25 132.652344 47.476562 C 130.003906 48.699219 128.777344 51.859375 130.003906 54.613281 Z M 146.011719 89.382812 " fill-opacity="1" fill-rule="nonzero"/><path fill="#000000" d="M 80.957031 228.769531 C 79.734375 226.117188 76.46875 224.996094 73.820312 226.21875 L 23.550781 249.976562 C 20.898438 251.203125 19.777344 254.464844 21 257.117188 C 21.917969 259.054688 23.855469 260.175781 25.792969 260.175781 C 26.609375 260.175781 27.324219 259.972656 28.035156 259.664062 L 78.304688 235.90625 C 81.058594 234.683594 82.179688 231.523438 80.957031 228.769531 Z M 80.957031 228.769531 " fill-opacity="1" fill-rule="nonzero"/><path fill="#000000" d="M 67.703125 204.910156 L 38.539062 207.253906 C 35.582031 207.457031 33.441406 210.007812 33.644531 212.964844 C 33.847656 215.71875 36.195312 217.859375 38.945312 217.859375 C 39.050781 217.859375 39.253906 217.859375 39.355469 217.859375 L 68.515625 215.617188 C 71.472656 215.410156 73.617188 212.863281 73.410156 209.90625 C 73.207031 206.847656 70.660156 204.605469 67.703125 204.910156 Z M 67.703125 204.910156 " fill-opacity="1" fill-rule="nonzero"/><path fill="#000000" d="M 89.523438 252.832031 C 81.671875 254.769531 74.429688 258.136719 67.90625 262.824219 C 61.890625 267.210938 56.6875 272.714844 52.609375 278.9375 L 65.96875 278.9375 C 68.414062 276.183594 71.167969 273.632812 74.125 271.390625 C 79.53125 267.515625 85.546875 264.660156 91.96875 263.132812 C 94.824219 262.417969 96.558594 259.5625 95.84375 256.707031 C 95.230469 253.851562 92.378906 252.121094 89.523438 252.832031 Z M 89.523438 252.832031 " fill-opacity="1" fill-rule="nonzero"/><path fill="#000000" d="M 107.875 271.695312 C 105.328125 273.125 104.410156 276.386719 105.9375 278.9375 L 118.277344 278.9375 L 115.21875 273.632812 C 113.6875 271.085938 110.425781 270.167969 107.875 271.695312 Z M 107.875 271.695312 " fill-opacity="1" fill-rule="nonzero"/><path fill="#000000" d="M 70.453125 190.328125 C 73.308594 190.328125 75.757812 187.984375 75.757812 185.128906 C 75.859375 182.171875 73.511719 179.722656 70.554688 179.621094 L 16.71875 178.5 C 13.761719 178.5 11.316406 180.742188 11.210938 183.699219 C 11.109375 186.65625 13.457031 189.105469 16.414062 189.105469 L 70.25 190.226562 Z M 70.453125 190.328125 " fill-opacity="1" fill-rule="nonzero"/><path fill="#000000" d="M 191.996094 83.875 C 194.953125 83.875 197.300781 81.53125 197.300781 78.574219 L 197.300781 19.027344 C 197.300781 16.070312 194.953125 13.722656 191.996094 13.722656 C 189.039062 13.722656 186.695312 16.070312 186.695312 19.027344 L 186.695312 78.574219 C 186.695312 81.53125 189.039062 83.875 191.996094 83.875 Z M 191.996094 83.875 " fill-opacity="1" fill-rule="nonzero"/><path fill="#000000" d="M 268.878906 273.632812 L 265.820312 278.9375 L 278.15625 278.9375 C 279.585938 276.386719 278.769531 273.125 276.21875 271.695312 C 273.570312 270.167969 270.304688 271.085938 268.878906 273.632812 Z M 268.878906 273.632812 " fill-opacity="1" fill-rule="nonzero"/><path fill="#000000" d="M 288.046875 256.707031 C 287.335938 259.5625 289.066406 262.417969 291.921875 263.132812 C 298.449219 264.761719 304.464844 267.515625 309.765625 271.390625 C 312.722656 273.53125 315.476562 276.082031 317.925781 278.9375 L 331.28125 278.9375 C 327.203125 272.714844 322.003906 267.210938 315.988281 262.824219 C 309.460938 258.035156 302.222656 254.667969 294.371094 252.832031 C 291.71875 252.121094 288.761719 253.851562 288.046875 256.707031 Z M 288.046875 256.707031 " fill-opacity="1" fill-rule="nonzero"/><path fill="#000000" d="M 230.949219 92.035156 C 231.660156 92.339844 232.476562 92.542969 233.191406 92.542969 C 235.230469 92.542969 237.167969 91.421875 238.085938 89.484375 L 254.09375 54.816406 C 255.316406 52.164062 254.195312 49.003906 251.441406 47.679688 C 248.792969 46.457031 245.632812 47.578125 244.304688 50.328125 L 228.296875 85 C 227.074219 87.648438 228.195312 90.808594 230.949219 92.035156 Z M 230.949219 92.035156 " fill-opacity="1" fill-rule="nonzero"/><path fill="#000000" d="M 280.707031 118.238281 C 282.03125 118.238281 283.359375 117.730469 284.378906 116.8125 L 314.660156 88.464844 C 316.800781 86.425781 316.90625 83.0625 314.96875 80.917969 C 312.929688 78.777344 309.5625 78.675781 307.421875 80.613281 L 277.136719 108.960938 C 274.996094 111 274.894531 114.363281 276.832031 116.503906 C 277.851562 117.730469 279.28125 118.238281 280.707031 118.238281 Z M 280.707031 118.238281 " fill-opacity="1" fill-rule="nonzero"/><path fill="#000000" d="M 367.277344 178.5 L 313.4375 179.621094 C 310.480469 179.722656 308.136719 182.171875 308.238281 185.128906 C 308.339844 188.085938 310.683594 190.328125 313.539062 190.328125 L 313.640625 190.328125 L 367.480469 189.207031 C 370.4375 189.105469 372.78125 186.65625 372.679688 183.800781 C 372.679688 180.84375 370.234375 178.5 367.277344 178.5 Z M 367.277344 178.5 " fill-opacity="1" fill-rule="nonzero"/><path fill="#000000" d="M 307.015625 157.292969 C 307.933594 159.230469 309.867188 160.351562 311.804688 160.351562 C 312.621094 160.351562 313.335938 160.148438 314.152344 159.839844 L 351.367188 141.792969 C 354.019531 140.46875 355.140625 137.304688 353.816406 134.65625 C 352.492188 132.003906 349.328125 130.882812 346.679688 132.207031 L 309.460938 150.257812 C 306.910156 151.480469 305.789062 154.640625 307.015625 157.292969 Z M 307.015625 157.292969 " fill-opacity="1" fill-rule="nonzero"/><path fill="#000000" d="M 344.640625 217.859375 C 344.742188 217.859375 344.945312 217.859375 345.046875 217.859375 C 347.800781 217.859375 350.144531 215.71875 350.347656 212.964844 C 350.554688 210.007812 348.410156 207.457031 345.453125 207.253906 L 316.292969 204.910156 C 313.335938 204.707031 310.785156 206.847656 310.582031 209.804688 C 310.378906 212.761719 312.519531 215.308594 315.476562 215.515625 Z M 344.640625 217.859375 " fill-opacity="1" fill-rule="nonzero"/><path fill="#000000" d="M 360.546875 249.976562 L 310.277344 226.21875 C 307.625 224.996094 304.464844 226.117188 303.140625 228.769531 C 301.914062 231.421875 303.039062 234.582031 305.6875 235.90625 L 355.957031 259.664062 C 356.671875 259.972656 357.488281 260.175781 358.199219 260.175781 C 360.238281 260.175781 362.074219 259.054688 362.992188 257.117188 C 364.320312 254.464844 363.195312 251.304688 360.546875 249.976562 Z M 360.546875 249.976562 " fill-opacity="1" fill-rule="nonzero"/><path fill="#000000" d="M 294.269531 134.554688 C 295.1875 136.390625 297.125 137.511719 299.0625 137.511719 C 299.875 137.511719 300.691406 137.304688 301.507812 136.898438 L 339.234375 117.730469 C 341.886719 116.402344 342.90625 113.140625 341.582031 110.589844 C 340.253906 107.941406 336.992188 106.921875 334.441406 108.246094 L 296.714844 127.414062 C 293.960938 128.640625 292.839844 131.902344 294.269531 134.554688 Z M 294.269531 134.554688 " fill-opacity="1" fill-rule="nonzero"/><g clip-path="url(#bd29a1b87b)"><g clip-path="url(#9364689725)"><g transform="matrix(1, 0, 0, 1, 99, 99)"><g clip-path="url(#1840e28bf8)"><g clip-path="url(#756829a8bc)"><g clip-path="url(#690426286f)"><path fill="#000000" d="M 0.53125 0.53125 L 185.46875 0.53125 L 185.46875 185.46875 L 0.53125 185.46875 Z M 0.53125 0.53125 " fill-opacity="1" fill-rule="nonzero"/></g></g></g></g></g></g><g clip-path="url(#9282119cb1)"><path fill="#ecd11e" d="M 240.128906 146.871094 C 227.148438 143.796875 213.746094 150.867188 208.09375 162.703125 C 202.515625 174.398438 206.164062 189.210938 216.421875 197.0625 C 217.707031 198.042969 219.0625 198.910156 220.492188 199.664062 C 221.921875 200.414062 223.402344 201.042969 224.9375 201.546875 C 226.46875 202.050781 228.035156 202.421875 229.632812 202.660156 C 231.230469 202.902344 232.835938 203.007812 234.449219 202.976562 C 236.0625 202.949219 237.664062 202.785156 239.25 202.484375 C 240.835938 202.1875 242.386719 201.757812 243.902344 201.199219 C 245.417969 200.640625 246.875 199.957031 248.277344 199.152344 C 249.675781 198.347656 251 197.433594 252.246094 196.40625 C 258.734375 191.128906 262.238281 182.933594 262.375 174.671875 L 262.375 174.617188 C 262.355469 173.015625 262.203125 171.429688 261.921875 169.855469 C 261.636719 168.28125 261.226562 166.738281 260.6875 165.234375 C 260.144531 163.726562 259.484375 162.273438 258.703125 160.878906 C 257.925781 159.480469 257.03125 158.160156 256.03125 156.910156 C 255.03125 155.664062 253.933594 154.507812 252.738281 153.441406 C 251.546875 152.375 250.273438 151.414062 248.921875 150.558594 C 247.566406 149.707031 246.152344 148.96875 244.675781 148.351562 C 243.203125 147.730469 241.683594 147.238281 240.128906 146.871094 Z M 217.285156 194.042969 C 217.539062 193.757812 216.785156 193.261719 216.546875 193.050781 C 215.679688 192.222656 214.867188 191.339844 214.117188 190.40625 C 213.382812 189.480469 212.714844 188.511719 212.117188 187.496094 C 211.980469 187.265625 210.757812 184.988281 210.652344 185.109375 C 210.765625 184.972656 210.878906 184.839844 210.996094 184.707031 L 226.304688 166.886719 C 231.074219 161.335938 235.847656 155.78125 240.625 150.222656 C 242.703125 150.816406 244.683594 151.644531 246.566406 152.710938 C 247.207031 153.070312 250.203125 155.363281 250.582031 155.269531 C 250.589844 155.269531 250.589844 155.277344 250.59375 155.28125 C 250.15625 155.796875 249.71875 156.296875 249.28125 156.800781 C 246.976562 159.492188 244.664062 162.179688 242.355469 164.867188 C 235.964844 172.308594 229.574219 179.75 223.183594 187.183594 C 221.34375 189.324219 219.507812 191.460938 217.667969 193.601562 C 217.542969 193.75 217.410156 193.894531 217.285156 194.042969 Z M 235.558594 149.386719 C 226.773438 159.609375 217.984375 169.835938 209.195312 180.070312 C 208.984375 179.113281 208.832031 178.152344 208.734375 177.179688 C 208.636719 176.207031 208.59375 175.230469 208.609375 174.253906 C 208.625 173.277344 208.695312 172.300781 208.824219 171.332031 C 208.949219 170.363281 209.132812 169.40625 209.371094 168.457031 C 209.613281 167.511719 209.90625 166.578125 210.25 165.664062 C 210.597656 164.75 210.996094 163.859375 211.445312 162.992188 C 211.894531 162.125 212.394531 161.285156 212.941406 160.476562 C 213.488281 159.664062 214.082031 158.890625 214.71875 158.148438 C 215.355469 157.40625 216.03125 156.703125 216.75 156.042969 C 217.46875 155.378906 218.222656 154.761719 219.015625 154.183594 C 219.804688 153.609375 220.625 153.082031 221.476562 152.601562 C 222.328125 152.121094 223.203125 151.691406 224.105469 151.3125 C 225.007812 150.933594 225.925781 150.605469 226.863281 150.335938 C 227.804688 150.0625 228.753906 149.84375 229.71875 149.683594 C 230.683594 149.519531 231.652344 149.414062 232.628906 149.367188 C 233.605469 149.316406 234.582031 149.324219 235.558594 149.386719 Z M 165.34375 152.21875 C 164.058594 151.238281 162.703125 150.375 161.277344 149.621094 C 159.847656 148.867188 158.367188 148.242188 156.832031 147.738281 C 155.296875 147.234375 153.734375 146.863281 152.136719 146.625 C 150.539062 146.382812 148.933594 146.277344 147.320312 146.308594 C 145.707031 146.339844 144.105469 146.503906 142.519531 146.800781 C 140.933594 147.101562 139.382812 147.53125 137.867188 148.089844 C 136.351562 148.648438 134.894531 149.332031 133.496094 150.132812 C 132.097656 150.9375 130.773438 151.855469 129.527344 152.882812 C 123.03125 158.160156 119.53125 166.351562 119.398438 174.617188 L 119.398438 174.667969 C 119.417969 176.265625 119.566406 177.855469 119.851562 179.429688 C 120.132812 181.003906 120.542969 182.542969 121.082031 184.050781 C 121.621094 185.558594 122.28125 187.007812 123.0625 188.40625 C 123.84375 189.800781 124.734375 191.125 125.738281 192.371094 C 126.738281 193.621094 127.835938 194.777344 129.027344 195.84375 C 130.222656 196.910156 131.496094 197.871094 132.847656 198.722656 C 134.199219 199.578125 135.613281 200.3125 137.089844 200.933594 C 138.566406 201.550781 140.082031 202.042969 141.640625 202.410156 C 154.621094 205.488281 168.027344 198.421875 173.671875 186.578125 C 179.257812 174.886719 175.613281 160.074219 165.34375 152.21875 Z M 131.128906 193.757812 C 131.097656 193.792969 131.058594 193.835938 131.027344 193.875 C 131.023438 193.875 131.023438 193.875 131.023438 193.867188 C 131.242188 193.5 129.839844 192.425781 129.566406 192.144531 C 128.027344 190.539062 126.722656 188.765625 125.652344 186.820312 C 125.539062 186.628906 124.59375 184.707031 124.46875 184.851562 C 124.511719 184.796875 124.5625 184.746094 124.605469 184.691406 C 125.195312 184.007812 125.78125 183.324219 126.371094 182.640625 C 132.292969 175.75 138.210938 168.859375 144.128906 161.96875 C 146.917969 158.722656 149.703125 155.480469 152.488281 152.238281 C 153.09375 151.53125 153.699219 150.828125 154.308594 150.125 C 154.5 149.890625 157.535156 151.242188 157.960938 151.429688 C 160.21875 152.417969 162.289062 153.710938 164.167969 155.308594 C 154.132812 166.980469 144.097656 178.660156 134.0625 190.34375 C 133.265625 191.261719 132.480469 192.1875 131.6875 193.105469 C 131.496094 193.324219 131.316406 193.542969 131.128906 193.757812 Z M 129.097656 157.632812 C 130.363281 156.246094 131.761719 155.015625 133.300781 153.941406 C 134.835938 152.863281 136.472656 151.96875 138.207031 151.253906 C 139.941406 150.539062 141.734375 150.023438 143.582031 149.703125 C 145.433594 149.386719 147.292969 149.273438 149.167969 149.367188 C 140.464844 159.503906 131.761719 169.636719 123.058594 179.761719 C 122.664062 177.8125 122.503906 175.839844 122.574219 173.851562 C 122.640625 171.859375 122.9375 169.90625 123.460938 167.984375 C 123.984375 166.0625 124.722656 164.230469 125.675781 162.480469 C 126.628906 160.730469 127.769531 159.117188 129.097656 157.632812 Z M 276.988281 160.050781 C 275.289062 159.507812 273.546875 159.25 271.765625 159.273438 C 270.640625 159.269531 269.523438 159.367188 268.417969 159.566406 C 267.742188 158.050781 266.972656 156.582031 266.105469 155.167969 C 265.242188 153.75 264.285156 152.394531 263.242188 151.101562 C 262.199219 149.8125 261.078125 148.59375 259.875 147.445312 C 258.675781 146.300781 257.402344 145.238281 256.0625 144.261719 C 254.722656 143.28125 253.324219 142.394531 251.867188 141.597656 C 250.410156 140.800781 248.90625 140.101562 247.359375 139.503906 C 245.8125 138.902344 244.230469 138.40625 242.617188 138.011719 C 241.003906 137.617188 239.375 137.332031 237.722656 137.152344 C 236.394531 136.996094 235.058594 136.917969 233.722656 136.917969 C 220.933594 136.917969 208.75 143.863281 201.75 155.089844 C 198.375 154.609375 194.984375 154.3125 191.578125 154.199219 C 191.523438 154.199219 191.472656 154.203125 191.421875 154.207031 C 191.34375 154.191406 191.265625 154.183594 191.1875 154.183594 C 191.183594 154.183594 190.613281 154.195312 190.613281 154.195312 C 190.535156 154.195312 190.457031 154.199219 190.378906 154.210938 C 190.304688 154.203125 190.226562 154.203125 190.136719 154.203125 L 190.125 154.203125 C 186.738281 154.316406 183.371094 154.613281 180.019531 155.089844 C 179.167969 153.707031 178.234375 152.386719 177.21875 151.125 C 176.199219 149.863281 175.105469 148.671875 173.9375 147.550781 C 172.765625 146.425781 171.527344 145.386719 170.222656 144.421875 C 168.921875 143.457031 167.558594 142.582031 166.144531 141.792969 C 164.726562 141.003906 163.265625 140.308594 161.761719 139.707031 C 160.257812 139.105469 158.71875 138.601562 157.148438 138.195312 C 155.582031 137.792969 153.992188 137.488281 152.382812 137.285156 C 150.773438 137.085938 149.160156 136.984375 147.539062 136.992188 C 146.386719 136.992188 145.222656 137.042969 144.070312 137.148438 C 130.972656 138.328125 119.011719 147.089844 113.351562 159.566406 C 112.289062 159.386719 111.222656 159.296875 110.148438 159.304688 C 108.648438 159.304688 107.164062 159.449219 105.695312 159.746094 C 101.152344 160.675781 99.535156 165.179688 99.535156 169.082031 L 99.53125 169.484375 C 99.527344 172.621094 99.519531 176.519531 102.914062 178.816406 C 105.152344 180.328125 107.714844 180.523438 109.699219 180.523438 C 110.015625 180.523438 110.332031 180.515625 110.648438 180.507812 C 113.757812 198.707031 129.734375 212.308594 148.214844 212.308594 C 148.6875 212.308594 149.15625 212.300781 149.625 212.285156 C 168.25 211.605469 183.816406 196.328125 185.398438 177.339844 C 187.15625 176.964844 188.929688 176.714844 190.722656 176.597656 L 190.882812 176.582031 C 190.886719 176.582031 191.058594 176.597656 191.058594 176.597656 C 192.84375 176.71875 194.613281 176.964844 196.363281 177.339844 C 196.457031 178.472656 196.601562 179.597656 196.800781 180.71875 C 196.996094 181.835938 197.242188 182.945312 197.535156 184.039062 C 197.832031 185.136719 198.171875 186.21875 198.5625 187.285156 C 198.957031 188.351562 199.394531 189.398438 199.878906 190.425781 C 200.363281 191.453125 200.890625 192.457031 201.464844 193.4375 C 202.039062 194.417969 202.65625 195.371094 203.316406 196.296875 C 203.972656 197.222656 204.671875 198.113281 205.410156 198.976562 C 206.148438 199.839844 206.925781 200.667969 207.738281 201.464844 C 208.550781 202.257812 209.394531 203.011719 210.273438 203.730469 C 211.15625 204.449219 212.066406 205.128906 213.003906 205.765625 C 213.945312 206.402344 214.910156 206.996094 215.90625 207.550781 C 216.898438 208.101562 217.914062 208.605469 218.953125 209.066406 C 219.988281 209.527344 221.046875 209.941406 222.121094 210.308594 C 223.195312 210.675781 224.285156 210.992188 225.390625 211.261719 C 226.492188 211.53125 227.605469 211.75 228.730469 211.921875 C 229.851562 212.09375 230.980469 212.210938 232.113281 212.28125 C 232.839844 212.328125 233.5625 212.347656 234.28125 212.347656 C 252.339844 212.347656 268.007812 198.726562 271.121094 180.503906 C 271.417969 180.511719 271.71875 180.519531 272.019531 180.519531 C 273.738281 180.519531 275.976562 180.382812 278.066406 179.339844 C 282.242188 177.246094 282.242188 172.78125 282.242188 169.082031 C 282.242188 164.4375 280.375 161.230469 276.988281 160.050781 Z M 268.429688 178.386719 C 266.296875 196.582031 250.421875 209.964844 232.179688 209.300781 C 214.253906 208.652344 200.007812 193.367188 199.246094 175.765625 C 199.242188 175.558594 199.175781 175.367188 199.050781 175.203125 C 198.925781 175.035156 198.761719 174.921875 198.558594 174.859375 C 196.113281 174.042969 193.542969 173.839844 190.992188 173.601562 C 190.960938 173.597656 190.925781 173.597656 190.894531 173.597656 L 190.878906 173.597656 C 190.847656 173.597656 190.8125 173.597656 190.78125 173.601562 C 188.222656 173.839844 185.652344 174.042969 183.207031 174.859375 C 183.007812 174.921875 182.84375 175.035156 182.714844 175.203125 C 182.589844 175.371094 182.523438 175.558594 182.519531 175.765625 C 182.472656 176.839844 182.378906 177.90625 182.234375 178.972656 C 182.089844 180.035156 181.894531 181.089844 181.652344 182.136719 C 181.410156 183.179688 181.125 184.214844 180.785156 185.234375 C 180.449219 186.253906 180.070312 187.253906 179.640625 188.238281 C 179.214844 189.222656 178.742188 190.183594 178.226562 191.125 C 177.707031 192.066406 177.152344 192.984375 176.550781 193.875 C 175.949219 194.761719 175.3125 195.625 174.632812 196.457031 C 173.953125 197.285156 173.238281 198.085938 172.484375 198.851562 C 171.734375 199.617188 170.949219 200.347656 170.128906 201.039062 C 169.308594 201.734375 168.460938 202.390625 167.582031 203.003906 C 166.703125 203.621094 165.796875 204.195312 164.867188 204.730469 C 163.933594 205.261719 162.980469 205.75 162.003906 206.195312 C 161.027344 206.640625 160.03125 207.042969 159.019531 207.398438 C 158.007812 207.75 156.980469 208.058594 155.9375 208.320312 C 154.898438 208.578125 153.847656 208.792969 152.785156 208.957031 C 151.722656 209.121094 150.660156 209.234375 149.585938 209.300781 C 131.386719 210.40625 115.433594 196.257812 113.339844 178.386719 C 113.335938 178.128906 113.242188 177.910156 113.0625 177.726562 C 112.878906 177.542969 112.660156 177.453125 112.402344 177.449219 C 110.882812 177.523438 109.351562 177.457031 107.832031 177.457031 C 103.183594 177.457031 102.515625 173.222656 102.515625 169.65625 C 102.515625 166.144531 103.617188 162.449219 107.929688 162.449219 C 110.023438 162.449219 112.277344 162.199219 114.296875 162.875 C 114.546875 162.9375 114.78125 162.90625 115.003906 162.777344 C 115.226562 162.652344 115.375 162.464844 115.445312 162.21875 C 116.042969 160.703125 116.742188 159.238281 117.542969 157.824219 C 118.339844 156.40625 119.234375 155.054688 120.222656 153.761719 C 121.207031 152.46875 122.277344 151.25 123.433594 150.105469 C 124.589844 148.960938 125.820312 147.902344 127.121094 146.929688 C 128.421875 145.953125 129.785156 145.074219 131.210938 144.289062 C 132.632812 143.503906 134.105469 142.820312 135.625 142.238281 C 137.144531 141.65625 138.695312 141.179688 140.277344 140.8125 C 141.863281 140.445312 143.464844 140.191406 145.085938 140.042969 C 158.589844 138.832031 171.464844 146.164062 178.148438 157.765625 C 178.261719 157.945312 178.414062 158.074219 178.609375 158.152344 C 178.804688 158.230469 179.007812 158.246094 179.210938 158.195312 C 182.839844 157.652344 186.488281 157.316406 190.15625 157.183594 C 190.230469 157.179688 190.308594 157.167969 190.382812 157.152344 C 190.667969 157.167969 190.953125 157.148438 191.234375 157.09375 C 191.351562 157.148438 191.480469 157.179688 191.613281 157.183594 C 195.28125 157.316406 198.929688 157.652344 202.558594 158.195312 C 202.765625 158.246094 202.964844 158.230469 203.160156 158.152344 C 203.355469 158.074219 203.507812 157.945312 203.617188 157.765625 C 204.4375 156.332031 205.347656 154.960938 206.359375 153.65625 C 207.371094 152.347656 208.464844 151.121094 209.648438 149.96875 C 210.832031 148.816406 212.089844 147.75 213.421875 146.777344 C 214.753906 145.800781 216.144531 144.921875 217.601562 144.144531 C 219.058594 143.363281 220.558594 142.6875 222.109375 142.121094 C 223.660156 141.550781 225.242188 141.09375 226.855469 140.746094 C 228.46875 140.398438 230.101562 140.167969 231.746094 140.050781 C 233.394531 139.933594 235.042969 139.929688 236.6875 140.042969 C 249.925781 140.894531 261.5 150.050781 266.320312 162.21875 C 266.394531 162.464844 266.542969 162.652344 266.765625 162.78125 C 266.992188 162.90625 267.226562 162.9375 267.476562 162.875 C 269.492188 162.199219 271.742188 162.449219 273.835938 162.449219 C 278.15625 162.449219 279.257812 166.144531 279.257812 169.65625 C 279.257812 173.390625 278.570312 177.144531 273.941406 177.457031 C 272.417969 177.539062 270.890625 177.539062 269.367188 177.449219 C 269.109375 177.453125 268.890625 177.542969 268.707031 177.726562 C 268.523438 177.910156 268.429688 178.128906 268.429688 178.386719 Z M 268.429688 178.386719 " fill-opacity="1" fill-rule="nonzero"/></g><g clip-path="url(#d290898136)"><g clip-path="url(#592eea934d)"><g transform="matrix(1, 0, 0, 1, 208, 148)"><g clip-path="url(#f448dafd0b)"><g clip-path="url(#7ef12c76da)"><g clip-path="url(#a89d3c5218)"><path fill="#ecd11e" d="M 0.0117188 0.601562 L 52.066406 0.601562 L 52.066406 52.65625 L 0.0117188 52.65625 Z M 0.0117188 0.601562 " fill-opacity="1" fill-rule="nonzero"/></g></g></g></g></g></g><g clip-path="url(#444498a9eb)"><g clip-path="url(#d4793045e9)"><g transform="matrix(1, 0, 0, 1, 121, 148)"><g clip-path="url(#76c69725ad)"><g clip-path="url(#e23fb1d326)"><g clip-path="url(#6a01e60706)"><path fill="#ecd11e" d="M 0.699219 0.601562 L 52.753906 0.601562 L 52.753906 52.65625 L 0.699219 52.65625 Z M 0.699219 0.601562 " fill-opacity="1" fill-rule="nonzero"/></g></g></g></g></g></g><g clip-path="url(#0cf15f7e65)"><path fill="#000000" d="M 125.871094 165.164062 C 126.453125 164.59375 127.046875 164.03125 127.621094 163.453125 C 129.800781 161.25 131.96875 159.035156 134.160156 156.847656 C 134.375 156.632812 134.730469 156.445312 135.023438 156.445312 C 146.277344 156.425781 157.535156 156.421875 168.789062 156.429688 C 168.921875 156.429688 169.050781 156.445312 169.28125 156.460938 C 169.140625 156.636719 169.058594 156.757812 168.957031 156.859375 C 166.289062 159.570312 163.613281 162.273438 160.933594 164.972656 C 160.722656 165.1875 160.351562 165.34375 160.054688 165.34375 C 148.847656 165.363281 137.636719 165.367188 126.425781 165.359375 C 126.273438 165.359375 126.121094 165.339844 125.96875 165.328125 Z M 125.871094 165.164062 " fill-opacity="1" fill-rule="nonzero"/></g><g clip-path="url(#ca7df2a909)"><path fill="#000000" d="M 169.308594 179.253906 L 168.464844 179.253906 C 157.410156 179.253906 146.351562 179.257812 135.296875 179.265625 C 134.753906 179.265625 134.382812 179.097656 134 178.707031 C 131.488281 176.125 128.953125 173.570312 126.421875 171.007812 C 126.253906 170.835938 126.089844 170.652344 125.824219 170.371094 C 126.175781 170.351562 126.410156 170.328125 126.644531 170.328125 C 137.722656 170.328125 148.800781 170.324219 159.878906 170.316406 C 160.398438 170.316406 160.757812 170.480469 161.117188 170.851562 C 163.792969 173.621094 166.488281 176.371094 169.308594 179.253906 Z M 169.308594 179.253906 " fill-opacity="1" fill-rule="nonzero"/></g><g clip-path="url(#c9ba464d45)"><path fill="#000000" d="M 169.28125 184.292969 C 169.078125 184.523438 168.957031 184.679688 168.820312 184.816406 C 166.210938 187.460938 163.605469 190.109375 160.980469 192.734375 C 160.753906 192.960938 160.363281 193.136719 160.050781 193.136719 C 148.839844 193.15625 137.628906 193.160156 126.417969 193.152344 C 126.261719 193.152344 126.109375 193.136719 125.855469 193.121094 C 126.035156 192.910156 126.148438 192.757812 126.28125 192.625 C 128.902344 189.964844 131.519531 187.300781 134.164062 184.660156 C 134.390625 184.433594 134.78125 184.257812 135.097656 184.253906 C 146.261719 184.234375 157.429688 184.230469 168.59375 184.242188 C 168.789062 184.242188 168.980469 184.269531 169.28125 184.292969 Z M 169.28125 184.292969 " fill-opacity="1" fill-rule="nonzero"/></g><g clip-path="url(#0e49305f1c)"><path fill="#000000" d="M 212.183594 165.164062 C 212.765625 164.59375 213.359375 164.03125 213.933594 163.453125 C 216.113281 161.25 218.28125 159.035156 220.476562 156.847656 C 220.691406 156.632812 221.046875 156.445312 221.335938 156.445312 C 232.59375 156.425781 243.847656 156.421875 255.105469 156.429688 C 255.234375 156.429688 255.363281 156.445312 255.59375 156.460938 C 255.453125 156.636719 255.371094 156.757812 255.269531 156.859375 C 252.601562 159.570312 249.925781 162.273438 247.246094 164.972656 C 247.035156 165.1875 246.667969 165.34375 246.371094 165.34375 C 235.160156 165.363281 223.949219 165.367188 212.738281 165.359375 C 212.585938 165.359375 212.433594 165.339844 212.28125 165.328125 Z M 212.183594 165.164062 " fill-opacity="1" fill-rule="nonzero"/></g><g clip-path="url(#a6485bbc82)"><path fill="#000000" d="M 255.621094 179.253906 L 254.777344 179.253906 C 243.722656 179.253906 232.667969 179.257812 221.609375 179.265625 C 221.066406 179.265625 220.695312 179.097656 220.3125 178.707031 C 217.800781 176.125 215.265625 173.570312 212.738281 171.007812 C 212.566406 170.835938 212.402344 170.652344 212.136719 170.371094 C 212.488281 170.351562 212.722656 170.328125 212.957031 170.328125 C 224.035156 170.328125 235.113281 170.324219 246.191406 170.316406 C 246.710938 170.316406 247.070312 170.480469 247.429688 170.851562 C 250.105469 173.621094 252.804688 176.371094 255.621094 179.253906 Z M 255.621094 179.253906 " fill-opacity="1" fill-rule="nonzero"/></g><g clip-path="url(#771d767e80)"><path fill="#000000" d="M 255.59375 184.292969 C 255.390625 184.523438 255.269531 184.679688 255.132812 184.816406 C 252.523438 187.460938 249.921875 190.109375 247.292969 192.734375 C 247.066406 192.960938 246.679688 193.136719 246.367188 193.136719 C 235.152344 193.15625 223.941406 193.160156 212.730469 193.152344 C 212.578125 193.152344 212.425781 193.136719 212.167969 193.121094 C 212.347656 192.910156 212.460938 192.757812 212.59375 192.625 C 215.21875 189.964844 217.835938 187.300781 220.476562 184.660156 C 220.703125 184.433594 221.09375 184.257812 221.410156 184.253906 C 232.574219 184.234375 243.742188 184.230469 254.910156 184.242188 C 255.101562 184.242188 255.292969 184.269531 255.59375 184.292969 Z M 255.59375 184.292969 " fill-opacity="1" fill-rule="nonzero"/></g></svg>